<svg width="57" height="44" viewBox="0 0 57 44" fill="none" xmlns="http://www.w3.org/2000/svg">
<path d="M55.475 39.0081H19.498V40.6051H55.475V39.0081Z" fill="#ECB964"/>
<path d="M26.5081 40.605H19.498V42.987H26.5081V40.605Z" fill="#ECB964"/>
<path d="M41.8226 40.605H34.8086V42.987H41.8226V40.605Z" fill="#ECB964"/>
<path d="M55.4758 40.5449H48.4648V42.9229H55.4758V40.5449Z" fill="#ECB964"/>
<path d="M48.4643 40.605H41.8223V42.923H48.4643V40.605Z" fill="#C69958"/>
<path d="M34.8098 40.605H26.5098V42.987H34.8098V40.605Z" fill="#C69958"/>
<path d="M26.5098 40.605L34.8098 42.987V40.605H26.5098Z" fill="#AA824D"/>
<path d="M41.8223 40.605L48.4653 42.923V40.605H41.8223Z" fill="#AA824D"/>
<path d="M55.475 39.0081H19.498V39.8551H55.475V39.0081Z" fill="#C69958"/>
<path d="M20.0618 39.0181H1.25781V39.8451H20.0618V39.0181Z" fill="#C69958"/>
<path d="M19.4998 39.8311H1.25781V42.9871H19.4998V39.8311Z" fill="#DBAA63"/>
<path d="M13.2946 40.7371H5.64062V42.9821H13.2946V40.7371Z" fill="#C69758"/>
<path d="M5.64062 42.9811L13.2946 40.7371H5.64062V42.9811Z" fill="#AA824D"/>
<path d="M53.1126 42.936H19.5566V43.712H53.1126V42.936Z" fill="#715E67"/>
<path d="M19.5555 42.9231H2.48047V43.7121H19.5555V42.9231Z" fill="#5B4F55"/>
<path d="M19.61 0.142822H16.373V12.2338H19.61V0.142822Z" fill="#B26E60"/>
<path d="M33.3125 0.142822L46.4515 0.296829L46.3855 13.2428L33.4585 13.2398L33.3125 0.142822Z" fill="#FCC491"/>
<path d="M33.4584 13.2398L23.2754 13.0868L23.5024 0.348831L33.4584 0.142822V13.2398Z" fill="#FCC491"/>
<path d="M33.457 13.2398L30.2141 13.1648L29.998 0.245834L33.457 0.142822V13.2398Z" fill="#B26E60"/>
<path d="M19.4785 0.0769043L32.8805 0.165909V13.1929L19.6315 13.1789L19.4785 0.0769043Z" fill="#FCC491"/>
<path d="M19.6306 13.1789H9.60156L9.67456 0.289902L19.6306 0.0769043V13.1789Z" fill="#CB8371"/>
<path d="M28.0657 2.15601L23.7397 2.10901L23.7207 0.0930176L28.0657 0.143005V2.15601Z" fill="#EAB488"/>
<path d="M42.4075 2.26979L38.0835 2.21979L38.0625 0.206787L42.4075 0.249786V2.26979Z" fill="#EAB488"/>
<path d="M39.5508 12.97L52.6898 13.123L52.6178 25.664L39.6958 25.868L39.5508 12.97Z" fill="#FCC491"/>
<path d="M39.6949 25.868H29.6719L29.7419 13.174L39.6949 12.97V25.868Z" fill="#CB8371"/>
<path d="M39.6949 25.868L36.3359 25.849L36.4379 12.95H39.6809L39.6949 25.868Z" fill="#B26E60"/>
<path d="M12.3582 12.8369H9.11523V24.9319H12.3582V12.8369Z" fill="#B26E60"/>
<path d="M26.0586 12.8369L39.2016 12.9959L39.1326 25.9429L26.2046 25.9409L26.0586 12.8369Z" fill="#FCC491"/>
<path d="M26.2054 25.9409L16.0234 25.7839L16.2514 13.0469L26.2054 12.8369V25.9409Z" fill="#FCC491"/>
<path d="M26.205 25.9409L22.963 25.8629L22.748 12.9439L26.205 12.8369V25.9409Z" fill="#B26E60"/>
<path d="M12.2285 12.7759L25.6295 12.8679V25.8919L12.3815 25.8739L12.2285 12.7759Z" fill="#FCC491"/>
<path d="M12.3806 25.8739H2.34766L2.42065 12.9859L12.3806 12.7759V25.8739Z" fill="#CB8371"/>
<path d="M20.8138 14.8548L16.4878 14.8038L16.4668 12.7898L20.8138 12.8368V14.8548Z" fill="#EAB488"/>
<path d="M35.1555 14.9629L30.8305 14.9169L30.8125 12.8989L35.1555 12.9489V14.9629Z" fill="#EAB488"/>
<path d="M48.886 15.117L44.561 15.076L44.541 13.062L48.886 13.102V15.117Z" fill="#EAB488"/>
<path d="M41.4961 25.5188L56.1451 25.6948L56.0601 39.6738L41.6551 39.9088L41.4961 25.5188Z" fill="#EFB789"/>
<path d="M41.6564 39.9088H30.4824L30.5634 25.7538L41.6564 25.5188V39.9088Z" fill="#CB8371"/>
<path d="M41.6561 39.9089L37.9121 39.8719L38.0271 25.5039H41.6441L41.6561 39.9089Z" fill="#B26E60"/>
<path d="M11.1569 25.3269H7.54688V38.8029H11.1569V25.3269Z" fill="#B26E60"/>
<path d="M26.4258 25.3269L41.0768 25.5079L40.9998 39.9339L26.5888 39.9289L26.4258 25.3269Z" fill="#EFB789"/>
<path d="M26.5893 39.9289L15.2383 39.7559L15.4973 25.5609L26.5893 25.3269V39.9289Z" fill="#CB8371"/>
<path d="M26.5903 39.9289L22.9773 39.8469L22.7383 25.4399L26.5903 25.3269V39.9289Z" fill="#B26E60"/>
<path d="M11.0098 25.2578L25.9467 25.3558V39.8788L11.1778 39.8608L11.0098 25.2578Z" fill="#EFB789"/>
<path d="M11.177 39.8608H0L0.0799866 25.4938L11.177 25.2578V39.8608Z" fill="#CB8371"/>
<path d="M20.5813 27.5719L15.7593 27.521L15.7383 25.2729L20.5813 25.327V27.5719Z" fill="#D3A17D"/>
<path d="M36.5656 27.7L31.7466 27.645L31.7246 25.3979L36.5656 25.453V27.7Z" fill="#D3A17D"/>
<path d="M51.8704 27.868L47.0523 27.818L47.0273 25.572L51.8704 25.626V27.868Z" fill="#D3A17D"/>
<path d="M9.57031 12.8069H19.6583L19.6313 0.0769043L9.57031 12.8069Z" fill="#B26E60"/>
<path d="M12.3586 12.8369L12.3107 25.2579L2.34766 25.5089L12.3586 12.8369Z" fill="#B26E60"/>
<path d="M11.157 25.3269L11.177 39.8609H0L11.157 25.3269Z" fill="#B26E60"/>
<path opacity="0.1" d="M29.8138 40.583L28.9118 40.619L23.3828 0.0890045L24.0428 0L29.8138 40.583Z" fill="black"/>
<path opacity="0.1" d="M45.2563 40.583L44.3533 40.619L38.8223 0.0890045L39.4863 0L45.2563 40.583Z" fill="black"/>
<path opacity="0.1" d="M55.4768 39.8459H1.25781V40.545H55.4768V39.8459Z" fill="black"/>
<path d="M31.3069 40.583L30.404 40.619L24.877 0.0890045L25.537 0L31.3069 40.583Z" fill="white"/>
<path d="M46.7504 40.583L45.8454 40.619L40.3145 0.0890045L40.9774 0L46.7504 40.583Z" fill="white"/>
</svg>
