<svg width="168" height="60" viewBox="0 0 168 60" fill="none" xmlns="http://www.w3.org/2000/svg">
<path d="M143.643 59.6352L148.429 59.5202C148.429 59.5202 153.742 57.1002 152.216 49.4202C152.216 49.4202 151.123 45.5462 148.707 44.1072L143.717 44.0842L143.643 59.6352Z" fill="#323230"/>
<path d="M149.012 51.8833C148.991 56.1773 146.593 59.6493 143.643 59.6343C140.704 59.6203 138.33 56.1263 138.352 51.8333C138.372 47.5393 140.777 44.0703 143.717 44.0843C146.666 44.0993 149.032 47.5893 149.012 51.8833Z" fill="#22231F"/>
<path d="M129.406 59.5681L134.191 59.4531C134.191 59.4531 139.504 57.0321 137.977 49.3531C137.977 49.3531 136.887 45.4781 134.47 44.0401L129.479 44.0161L129.406 59.5681Z" fill="#323230"/>
<path d="M134.775 51.8162C134.754 56.1092 132.351 59.5812 129.406 59.5672C126.462 59.5522 124.092 56.0582 124.113 51.7652C124.133 47.4712 126.535 44.0022 129.479 44.0162C132.424 44.0312 134.796 47.5212 134.775 51.8162Z" fill="#22231F"/>
<path d="M6.19638 43.0587L6.17383 47.8577L20.2068 47.9236L20.2294 43.1246L6.19638 43.0587Z" fill="#353535"/>
<path d="M5.97084 6.44377L5.79492 43.0928L19.9249 43.1606L20.1008 6.5116L5.97084 6.44377Z" fill="#FED605"/>
<path d="M20.0919 7.17715L20.2099 0.67115C20.2099 0.67115 6.10689 0.225161 5.96289 7.11016L20.0919 7.17715Z" fill="#FED605"/>
<path d="M5.93492 8.44375L5.92188 11.2188L20.0129 11.285L20.0259 8.50998L5.93492 8.44375Z" fill="#EDC107"/>
<path d="M5.94965 17.0592L5.93945 19.2292L19.9295 19.295L19.9397 17.125L5.94965 17.0592Z" fill="#352F33"/>
<path d="M5.84195 15.7754L5.83594 17.0544L19.9419 17.1207L19.9479 15.8417L5.84195 15.7754Z" fill="#363836"/>
<path d="M9.02657 19.1645L8.91406 43.1025L16.9211 43.1402L17.0336 19.2022L9.02657 19.1645Z" fill="#363836"/>
<path d="M16.241 19.1654L16.1523 43.1274L16.9314 43.1303L17.02 19.1683L16.241 19.1654Z" fill="#352F33"/>
<path d="M8.91864 19.1327L8.79883 43.0947L9.57784 43.0986L9.69765 19.1366L8.91864 19.1327Z" fill="#352F33"/>
<path d="M10.8569 20.6455L10.7988 32.7385L15.3018 32.7601L15.3599 20.6671L10.8569 20.6455Z" fill="#03BCE8"/>
<path d="M15.2929 25.1684L10.7959 32.7354L10.7949 29.8454L15.3349 22.2773L15.2929 25.1684Z" fill="#2FCFEA"/>
<path d="M15.3544 21.3322L10.8184 28.1492L10.8284 25.7722L14.1284 20.6582L15.3574 20.6642L15.3544 21.3322Z" fill="#2FCFEA"/>
<path d="M6.81021 4.61816C6.81021 4.61816 2.1872 10.9122 2.1582 17.2262L5.94821 17.0612L6.81021 4.61816Z" fill="#FED605"/>
<path d="M3.88815 15.4087L3.7793 38.0867L5.88629 38.0968L5.99515 15.4188L3.88815 15.4087Z" fill="#EDC107"/>
<path d="M5.88097 39.1823L1.66797 39.1623L1.70197 31.9873L5.86497 25.6643L5.88097 39.1823Z" fill="#EDC107"/>
<path d="M2.16058 16.9336L2.08789 31.7676L4.6689 31.7802L4.74159 16.9462L2.16058 16.9336Z" fill="#03BCE8"/>
<path d="M0.0449884 38.9309L0 48.5029L6.194 48.532L6.23899 38.96L0.0449884 38.9309Z" fill="#EDC107"/>
<path d="M130.491 43.1475L130.465 48.6455L159.673 48.7857L159.699 43.2877L130.491 43.1475Z" fill="#7C7F7E"/>
<path d="M130.616 0.510178L130.416 43.1592L159.538 43.2961L159.738 0.647051L130.616 0.510178Z" fill="#9DA3A1"/>
<path d="M159.451 0.641296L159.225 48.7273L167.361 48.7655L167.587 0.679536L159.451 0.641296Z" fill="#D7DDDB"/>
<path d="M159.446 0.640289L130.482 43.1443L130.684 0.540283L159.446 0.640289Z" fill="#848987"/>
<path d="M129.882 17.6842L129.844 25.4722L131.929 25.4824L131.967 17.6944L129.882 17.6842Z" fill="#B26E60"/>
<path d="M140.793 17.7434L149.256 17.8864L149.173 26.2204L140.849 26.1784L140.793 17.7434Z" fill="#FCC491"/>
<path d="M140.849 26.1784L134.291 26.0504L134.478 17.8494L140.889 17.7444L140.849 26.1784Z" fill="#FCC491"/>
<path d="M140.85 26.1784L138.76 26.1204L138.662 17.7994L140.89 17.7444L140.85 26.1784Z" fill="#B26E60"/>
<path d="M131.885 17.6624L140.514 17.7574L140.474 26.1454L131.944 26.0984L131.885 17.6624Z" fill="#FCC491"/>
<path d="M131.944 26.0984L125.488 26.0684L125.575 17.7634L131.985 17.6624L131.944 26.0984Z" fill="#CB8371"/>
<path d="M137.409 19.0243L134.624 18.9813L134.619 17.6833L137.417 17.7273L137.409 19.0243Z" fill="#EAB488"/>
<path d="M146.644 19.1404L143.86 19.0954L143.854 17.7974L146.651 17.8394L146.644 19.1404Z" fill="#EAB488"/>
<path d="M144.771 26.0212L153.235 26.1622L153.146 34.2382L144.827 34.3322L144.771 26.0212Z" fill="#FCC491"/>
<path d="M144.827 34.3322L138.371 34.3002L138.456 26.1232L144.865 26.0212L144.827 34.3322Z" fill="#CB8371"/>
<path d="M144.827 34.3324L142.662 34.3054L142.77 26.0024L144.857 26.0124L144.827 34.3324Z" fill="#B26E60"/>
<path d="M125.185 25.8507L125.15 33.6367L127.236 33.6461L127.271 25.8601L125.185 25.8507Z" fill="#B26E60"/>
<path d="M136.086 25.8975L144.548 26.0395L144.465 34.3755L136.138 34.3305L136.086 25.8975Z" fill="#FCC491"/>
<path d="M136.137 34.3305L129.584 34.2025L129.77 26.0025L136.178 25.8975L136.137 34.3305Z" fill="#FCC491"/>
<path d="M136.138 34.3305L134.053 34.2785L133.953 25.9535L136.179 25.8975L136.138 34.3305Z" fill="#B26E60"/>
<path d="M127.18 25.8123L135.808 25.9122L135.768 34.2993L127.237 34.2493L127.18 25.8123Z" fill="#FCC491"/>
<path d="M127.236 34.2493L120.777 34.2203L120.863 25.9173L127.276 25.8123L127.236 34.2493Z" fill="#CB8371"/>
<path d="M132.703 27.1794L129.917 27.1354L129.91 25.8374L132.71 25.8814L132.703 27.1794Z" fill="#EAB488"/>
<path d="M141.936 27.2924L139.152 27.2484L139.146 25.9534L141.943 25.9954L141.936 27.2924Z" fill="#EAB488"/>
<path d="M150.777 27.4364L147.992 27.3934L147.984 26.0964L150.782 26.1414L150.777 27.4364Z" fill="#EAB488"/>
<path d="M145.986 34.1113L155.418 34.2673L155.322 43.2713L146.045 43.3753L145.986 34.1113Z" fill="#EFB789"/>
<path d="M146.047 43.3753L138.854 43.3423L138.947 34.2243L146.091 34.1123L146.047 43.3753Z" fill="#CB8371"/>
<path d="M146.045 43.3754L143.635 43.3434L143.752 34.0894L146.08 34.1014L146.045 43.3754Z" fill="#B26E60"/>
<path d="M124.12 33.874L124.08 42.553L126.406 42.5637L126.446 33.8847L124.12 33.874Z" fill="#B26E60"/>
<path d="M136.283 33.9404L145.717 34.1014L145.624 43.3894L136.344 43.3434L136.283 33.9404Z" fill="#EFB789"/>
<path d="M136.345 43.3434L129.037 43.2004L129.247 34.0594L136.389 33.9404L136.345 43.3434Z" fill="#CB8371"/>
<path d="M136.344 43.3434L134.018 43.2814L133.906 34.0064L136.388 33.9404L136.344 43.3434Z" fill="#B26E60"/>
<path d="M126.355 33.8474L135.972 33.9554L135.929 43.3064L126.421 43.2494L126.355 33.8474Z" fill="#EFB789"/>
<path d="M126.422 43.2494L119.225 43.2154L119.322 33.9654L126.467 33.8484L126.422 43.2494Z" fill="#CB8371"/>
<path d="M132.515 35.3703L129.407 35.3223L129.4 33.8733L132.522 33.9223L132.515 35.3703Z" fill="#D3A17D"/>
<path d="M142.806 35.4945L139.702 35.4495L139.695 34.0015L142.812 34.0515L142.806 35.4945Z" fill="#D3A17D"/>
<path d="M152.661 35.6574L149.557 35.6104L149.549 34.1614L152.667 34.2114L152.661 35.6574Z" fill="#D3A17D"/>
<path d="M125.469 25.8274L131.962 25.8584L131.986 17.6624L125.469 25.8274Z" fill="#B26E60"/>
<path d="M127.263 25.8555L127.192 33.8525L120.777 33.9835L127.263 25.8555Z" fill="#B26E60"/>
<path d="M126.451 33.8933L126.422 43.2493L119.225 43.2153L126.451 33.8933Z" fill="#B26E60"/>
<path d="M20.0436 0.675846L19.8164 48.0168L28.5524 48.0588L28.7797 0.717779L20.0436 0.675846Z" fill="#B2920B"/>
<path d="M22.7437 0.00676727L22.5391 42.6348L130.425 43.1526L130.63 0.52462L22.7437 0.00676727Z" fill="#BFC9C6"/>
<path d="M22.5428 40.2914L22.5059 48.1414L130.455 48.6487L130.492 40.7987L22.5428 40.2914Z" fill="#5D5D5D"/>
<path d="M22.5518 38.2146L22.5312 42.5886L130.479 43.096L130.5 38.722L22.5518 38.2146Z" fill="#353535"/>
<path d="M22.7334 9.91821e-05L22.6602 15.5791L130.388 16.0854L130.461 0.506421L22.7334 9.91821e-05Z" fill="#CCD6D3"/>
<path d="M57.2625 59.1252L61.4245 59.0012C61.4245 59.0012 66.2885 56.7882 64.8915 49.7512C64.8915 49.7512 63.8915 46.2032 61.6795 44.8862L57.1055 44.8652L57.2625 59.1252Z" fill="#323230"/>
<path d="M61.9566 52.0083C61.9386 55.9393 59.7376 59.1213 57.0376 59.1083C54.3456 59.0943 52.1716 55.8923 52.1896 51.9623C52.2076 48.0313 54.4136 44.8523 57.1046 44.8653C59.8056 44.8773 61.9756 48.0783 61.9566 52.0083Z" fill="#22231F"/>
<path d="M5.70772 52.4534L8.26172 52.6514C8.26172 52.6514 10.0577 45.9254 12.5557 44.9534L10.5547 43.5864C10.5547 43.5864 4.34272 45.6624 5.70772 52.4534Z" fill="#131314"/>
<path d="M11.2915 57.6283L15.4375 57.5193C15.4375 57.5193 20.2245 55.5123 18.8455 49.1393C18.8455 49.1393 17.8605 45.9223 15.6855 44.7273L11.1895 44.7063L11.2915 57.6283Z" fill="#323230"/>
<path d="M15.9596 51.1834C15.9426 54.7454 13.7816 57.6274 11.1266 57.6144C8.47558 57.6014 6.33758 54.6984 6.35558 51.1374C6.37258 47.5724 8.53758 44.6914 11.1886 44.7044C13.8426 44.7184 15.9766 47.6194 15.9596 51.1834Z" fill="#22231F"/>
<path d="M14.6567 51.0533C14.6687 48.5773 13.0717 46.5623 11.0857 46.5523C9.10373 46.5423 7.48372 48.5433 7.47272 51.0183C7.46072 53.4953 9.06072 55.5123 11.0427 55.5203C13.0297 55.5313 14.6457 53.5303 14.6567 51.0533Z" fill="#ECF0F1"/>
<path d="M12.8033 48.0225C12.2973 47.5125 11.6613 47.2055 10.9683 47.2015C9.31528 47.1925 7.96027 48.9175 7.94927 51.0395C7.93927 53.1655 9.27827 54.8985 10.9303 54.9065C11.6243 54.9095 12.2633 54.6095 12.7753 54.1035C13.4823 53.4005 13.9453 52.3035 13.9513 51.0675C13.9563 49.8325 13.5033 48.7315 12.8033 48.0225Z" fill="#C9C9C9"/>
<path d="M12.2955 51.0345C12.3025 49.6575 11.4625 48.5375 10.4205 48.5325C9.38047 48.5285 8.53047 49.6395 8.52347 51.0165C8.51747 52.3965 9.35747 53.5185 10.3965 53.5245C11.4385 53.5285 12.2895 52.4145 12.2955 51.0345Z" fill="#C9C9C9"/>
<path d="M12.1937 54.1015C12.9007 53.3975 13.3627 52.3014 13.3687 51.0654C13.3747 49.8304 12.9227 48.7285 12.2227 48.0195C11.7847 47.5845 11.2527 47.2955 10.6747 47.2205C10.7707 47.2085 10.8697 47.2005 10.9667 47.2025C11.6607 47.2055 12.2967 47.5135 12.8017 48.0235C13.5017 48.7325 13.9547 49.8345 13.9497 51.0685C13.9437 52.3045 13.4807 53.4014 12.7737 54.1044C12.2617 54.6094 11.6237 54.9105 10.9287 54.9075C10.8317 54.9065 10.7327 54.9005 10.6367 54.8875C11.2167 54.8195 11.7527 54.5365 12.1937 54.1015Z" fill="#C9C9C9"/>
<path d="M11.5106 51.0954C11.5146 50.1844 10.9606 49.4444 10.2726 49.4414C9.58365 49.4374 9.02065 50.1724 9.01565 51.0834C9.01165 51.9964 9.56864 52.7394 10.2566 52.7434C10.9446 52.7464 11.5066 52.0074 11.5106 51.0954Z" fill="#E2E2E2"/>
<path d="M15.8639 52.8734L19.9369 52.9894C19.9369 52.9894 20.5919 43.7284 14.9369 43.1874L10.2539 43.0264C10.2539 43.0264 16.6279 45.7694 15.8639 52.8734Z" fill="#49595A"/>
<path d="M5.70854 52.4533C5.70854 52.4533 5.87154 43.6113 11.2225 44.3853C11.2225 44.3853 15.9025 44.8733 15.0745 52.9183L15.8645 52.8733C15.8645 52.8733 16.8205 43.2433 10.6195 43.0753C10.6195 43.0753 4.78254 42.7653 4.98154 52.4513L5.70854 52.4533Z" fill="#424F4F"/>
<path d="M22.1842 44.0092L22.1641 48.3032L127.005 48.796L127.025 44.502L22.1842 44.0092Z" fill="#2F302B"/>
<path d="M22.1759 45.7558L22.1641 48.2678L126.994 48.7605L127.006 46.2485L22.1759 45.7558Z" fill="#22231F"/>
<path d="M90.0889 53.8542L92.7859 54.0662C92.7859 54.0662 94.6849 46.9532 97.3269 45.9252L95.2099 44.4822C95.2099 44.4822 88.6429 46.6772 90.0889 53.8542Z" fill="#131314"/>
<path d="M95.9878 59.3261L100.372 59.2121C100.372 59.2121 105.433 57.0931 103.98 50.3511C103.98 50.3511 102.937 46.9511 100.635 45.6861L95.8828 45.6631L95.9878 59.3261Z" fill="#323230"/>
<path d="M100.928 52.5131C100.91 56.2791 98.6236 59.3241 95.8196 59.3111C93.0156 59.2981 90.7546 56.2311 90.7716 52.4651C90.7886 48.6961 93.0806 45.6491 95.8836 45.6631C98.6886 45.6771 100.946 48.7441 100.928 52.5131Z" fill="#22231F"/>
<path d="M99.5482 52.3772C99.5622 49.7582 97.8702 47.6272 95.7762 47.6172C93.6772 47.6072 91.9632 49.7222 91.9512 52.3412C91.9392 54.9562 93.6332 57.0912 95.7302 57.1012C97.8262 57.1112 99.5352 54.9932 99.5482 52.3772Z" fill="#ECF0F1"/>
<path d="M97.5901 49.1731C97.0551 48.6331 96.3831 48.3041 95.6521 48.3001C93.8991 48.2931 92.4681 50.1141 92.4571 52.3611C92.4461 54.6081 93.8601 56.4401 95.6131 56.4481C96.3441 56.4521 97.0191 56.1321 97.5591 55.6001C98.3081 54.8591 98.7961 53.6991 98.8031 52.3901C98.8101 51.0861 98.3321 49.9201 97.5901 49.1731Z" fill="#C9C9C9"/>
<path d="M97.0525 52.357C97.0585 50.9 96.1685 49.712 95.0715 49.708C93.9705 49.702 93.0715 50.882 93.0645 52.338C93.0575 53.797 93.9445 54.983 95.0445 54.988C96.1445 54.993 97.0455 53.815 97.0525 52.357Z" fill="#C9C9C9"/>
<path d="M96.9438 55.597C97.6958 54.856 98.1818 53.697 98.1878 52.388C98.1948 51.084 97.7178 49.917 96.9738 49.17C96.5138 48.706 95.9498 48.399 95.3388 48.321C95.4428 48.307 95.5408 48.301 95.6518 48.301C96.3818 48.305 97.0538 48.633 97.5898 49.174C98.3318 49.921 98.8098 51.088 98.8038 52.392C98.7968 53.701 98.3088 54.86 97.5598 55.602C97.0198 56.135 96.3448 56.454 95.6138 56.45C95.5048 56.45 95.4058 56.443 95.3008 56.429C95.9118 56.358 96.4788 56.057 96.9438 55.597Z" fill="#C9C9C9"/>
<path d="M96.225 52.4242C96.229 51.4592 95.643 50.6742 94.917 50.6702C94.188 50.6672 93.592 51.4452 93.586 52.4112C93.582 53.3722 94.172 54.1572 94.9 54.1602C95.626 54.1642 96.22 53.3852 96.225 52.4242Z" fill="#E2E2E2"/>
<path d="M100.827 54.3002L105.135 54.4222C105.135 54.4222 105.824 44.6292 99.8445 44.0562L94.8945 43.8862C94.8945 43.8862 101.632 46.7872 100.827 54.3002Z" fill="#49595A"/>
<path d="M90.0888 53.8541C90.0888 53.8541 90.2588 44.5061 95.9158 45.3241C95.9158 45.3241 100.865 45.8441 99.9888 54.3451L100.826 54.3011C100.826 54.3011 101.838 44.1161 95.2758 43.9411C95.2758 43.9411 89.1068 43.6121 89.3178 53.8521L90.0888 53.8541Z" fill="#424F4F"/>
<path d="M104.325 53.9213L107.026 54.1333C107.026 54.1333 108.924 47.0203 111.564 45.9923L109.45 44.5503C109.45 44.5503 102.88 46.7443 104.325 53.9213Z" fill="#131314"/>
<path d="M110.226 59.3932L114.612 59.2792C114.612 59.2792 119.673 57.1602 118.216 50.4172C118.216 50.4172 117.174 47.0182 114.874 45.7532L110.121 45.7302L110.226 59.3932Z" fill="#323230"/>
<path d="M115.166 52.5803C115.148 56.3473 112.859 59.3923 110.056 59.3783C107.25 59.3643 104.99 56.2983 105.008 52.5313C105.026 48.7623 107.315 45.7173 110.121 45.7303C112.925 45.7443 115.183 48.8123 115.166 52.5803Z" fill="#22231F"/>
<path d="M113.786 52.4453C113.799 49.8273 112.106 47.6953 110.01 47.6853C107.913 47.6753 106.202 49.7903 106.191 52.4093C106.178 55.0253 107.87 57.1593 109.965 57.1693C112.063 57.1783 113.774 55.0613 113.786 52.4453Z" fill="#ECF0F1"/>
<path d="M111.826 49.2402C111.292 48.6992 110.617 48.3722 109.885 48.3682C108.136 48.3602 106.704 50.1822 106.693 52.4282C106.682 54.6762 108.098 56.5082 109.847 56.5162C110.58 56.5192 111.257 56.2012 111.796 55.6672C112.547 54.9272 113.035 53.7672 113.041 52.4592C113.047 51.1542 112.571 49.9872 111.826 49.2402Z" fill="#C9C9C9"/>
<path d="M111.29 52.4252C111.297 50.9692 110.407 49.7802 109.306 49.7752C108.207 49.7702 107.305 50.9502 107.299 52.4062C107.292 53.8632 108.181 55.0512 109.279 55.0552C110.383 55.0612 111.283 53.8832 111.29 52.4252Z" fill="#C9C9C9"/>
<path d="M111.18 55.6644C111.931 54.9234 112.417 53.7644 112.424 52.4564C112.43 51.1514 111.953 49.9854 111.211 49.2374C110.751 48.7734 110.19 48.4674 109.575 48.3884C109.678 48.3754 109.78 48.3694 109.884 48.3694C110.616 48.3724 111.291 48.7004 111.825 49.2414C112.57 49.9884 113.046 51.1544 113.04 52.4604C113.034 53.7684 112.546 54.9284 111.795 55.6684C111.256 56.2024 110.579 56.5214 109.846 56.5174C109.741 56.5174 109.641 56.5094 109.537 56.4964C110.151 56.4264 110.716 56.1244 111.18 55.6644Z" fill="#C9C9C9"/>
<path d="M110.462 52.4933C110.467 51.5263 109.879 50.7423 109.154 50.7383C108.424 50.7353 107.83 51.5133 107.826 52.4803C107.82 53.4423 108.407 54.2273 109.138 54.2293C109.862 54.2323 110.458 53.4533 110.462 52.4933Z" fill="#E2E2E2"/>
<path d="M115.063 54.3684L119.371 54.4894C119.371 54.4894 120.062 44.6974 114.084 44.1234L109.133 43.9534C109.133 43.9534 115.869 46.8544 115.063 54.3684Z" fill="#49595A"/>
<path d="M104.324 53.9213C104.324 53.9213 104.496 44.5733 110.152 45.3913C110.152 45.3913 115.102 45.9123 114.227 54.4123L115.062 54.3683C115.062 54.3683 116.073 44.1833 109.517 44.0073C109.517 44.0073 103.345 43.6783 103.554 53.9183L104.324 53.9213Z" fill="#424F4F"/>
<path d="M26.913 53.1572L29.612 53.3712C29.612 53.3712 31.512 46.2552 34.153 45.2282L32.036 43.7842C32.036 43.7842 25.467 45.9782 26.913 53.1572Z" fill="#131314"/>
<path d="M32.816 58.6282L37.202 58.5152C37.202 58.5152 42.263 56.3952 40.806 49.6542C40.806 49.6542 39.764 46.2532 37.463 44.9912L32.709 44.9692L32.816 58.6282Z" fill="#323230"/>
<path d="M37.7538 51.8153C37.7358 55.5823 35.4498 58.6283 32.6448 58.6133C29.8398 58.6003 27.5788 55.5333 27.5978 51.7663C27.6158 47.9983 29.9058 44.9543 32.7078 44.9683C35.5148 44.9823 37.7718 48.0483 37.7538 51.8153Z" fill="#22231F"/>
<path d="M36.3763 51.6784C36.3883 49.0624 34.6993 46.9304 32.6023 46.9214C30.5023 46.9114 28.7933 49.0264 28.7813 51.6434C28.7673 54.2634 30.4583 56.3954 32.5573 56.4044C34.6543 56.4144 36.3643 54.2994 36.3763 51.6784Z" fill="#ECF0F1"/>
<path d="M34.4183 48.4742C33.8803 47.9362 33.2073 47.6092 32.4763 47.6062C30.7283 47.5972 29.2933 49.4172 29.2833 51.6652C29.2733 53.9122 30.6893 55.7452 32.4373 55.7532C33.1683 55.7562 33.8453 55.4392 34.3873 54.9042C35.1343 54.1612 35.6223 53.0002 35.6293 51.6952C35.6353 50.3892 35.1583 49.2242 34.4183 48.4742Z" fill="#C9C9C9"/>
<path d="M33.8797 51.6632C33.8867 50.2032 32.9977 49.0172 31.8957 49.0122C30.7957 49.0072 29.8987 50.1842 29.8907 51.6442C29.8837 53.0972 30.7717 54.2852 31.8697 54.2902C32.9727 54.2952 33.8737 53.1162 33.8797 51.6632Z" fill="#C9C9C9"/>
<path d="M33.769 54.9013C34.519 54.1583 35.01 52.9973 35.016 51.6923C35.023 50.3863 34.542 49.2213 33.799 48.4713C33.34 48.0073 32.778 47.7033 32.164 47.6233C32.266 47.6103 32.371 47.6043 32.476 47.6053C33.207 47.6083 33.88 47.9353 34.418 48.4733C35.158 49.2223 35.635 50.3883 35.629 51.6933C35.622 52.9993 35.134 54.1593 34.387 54.9023C33.845 55.4383 33.168 55.7553 32.437 55.7513C32.332 55.7503 32.229 55.7423 32.127 55.7323C32.74 55.6583 33.304 55.3603 33.769 54.9013Z" fill="#C9C9C9"/>
<path d="M33.0511 51.7244C33.0561 50.7624 32.4701 49.9784 31.7431 49.9744C31.0141 49.9704 30.4181 50.7494 30.4141 51.7124C30.4101 52.6754 30.9981 53.4594 31.7271 53.4634C32.4531 53.4674 33.0471 52.6884 33.0511 51.7244Z" fill="#E2E2E2"/>
<path d="M37.6517 53.6022L41.9607 53.7242C41.9607 53.7242 42.6507 43.9342 36.6737 43.3592L31.7207 43.1882C31.7207 43.1882 38.4577 46.0902 37.6517 53.6022Z" fill="#49595A"/>
<path d="M26.9139 53.1572C26.9139 53.1572 27.0859 43.8122 32.7429 44.6282C32.7429 44.6282 37.6899 45.1462 36.8139 53.6502L37.6499 53.6022C37.6499 53.6022 38.6639 43.4192 32.1049 43.2392C32.1049 43.2392 25.9329 42.9132 26.1419 53.1532L26.9139 53.1572Z" fill="#424F4F"/>
<path d="M41.1513 53.2253L43.8493 53.4393C43.8493 53.4393 45.7483 46.3233 48.3893 45.2953L46.2743 43.8523C46.2743 43.8523 39.7053 46.0463 41.1513 53.2253Z" fill="#131314"/>
<path d="M47.0533 58.6963L51.4373 58.5833C51.4373 58.5833 56.4983 56.4633 55.0443 49.7223C55.0443 49.7223 54.0003 46.3223 51.7003 45.0603L46.9473 45.0383L47.0533 58.6963Z" fill="#323230"/>
<path d="M51.991 51.8834C51.974 55.6504 49.686 58.6954 46.882 58.6814C44.078 58.6684 41.819 55.6024 41.836 51.8344C41.853 48.0664 44.142 45.0224 46.947 45.0364C49.751 45.0504 52.01 48.1154 51.991 51.8834Z" fill="#22231F"/>
<path d="M50.6117 51.7463C50.6247 49.1303 48.9337 46.9993 46.8377 46.9883C44.7387 46.9783 43.0277 49.0933 43.0157 51.7103C43.0037 54.3313 44.6957 56.4613 46.7937 56.4713C48.8897 56.4803 50.5997 54.3663 50.6117 51.7463Z" fill="#ECF0F1"/>
<path d="M48.6565 48.5424C48.1175 48.0034 47.4485 47.6774 46.7145 47.6734C44.9645 47.6644 43.5315 49.4844 43.5235 51.7324C43.5125 53.9784 44.9265 55.8114 46.6765 55.8194C47.4085 55.8234 48.0815 55.5064 48.6255 54.9714C49.3735 54.2284 49.8615 53.0674 49.8675 51.7624C49.8735 50.4574 49.3985 49.2914 48.6565 48.5424Z" fill="#C9C9C9"/>
<path d="M48.116 51.7313C48.123 50.2713 47.236 49.0853 46.133 49.0803C45.032 49.0753 44.135 50.2523 44.127 51.7123C44.121 53.1653 45.008 54.3523 46.108 54.3583C47.211 54.3633 48.11 53.1833 48.116 51.7313Z" fill="#C9C9C9"/>
<path d="M48.0082 54.9685C48.7572 54.2265 49.2452 53.0645 49.2522 51.7595C49.2582 50.4535 48.7802 49.2885 48.0392 48.5385C47.5792 48.0745 47.0142 47.7695 46.4032 47.6905C46.5052 47.6775 46.6062 47.6715 46.7132 47.6735C47.4472 47.6765 48.1162 48.0035 48.6552 48.5425C49.3962 49.2915 49.8722 50.4575 49.8662 51.7625C49.8602 53.0675 49.3722 54.2285 48.6242 54.9715C48.0802 55.5065 47.4072 55.8245 46.6752 55.8195C46.5682 55.8185 46.4662 55.8115 46.3652 55.8005C46.9772 55.7275 47.5442 55.4285 48.0082 54.9685Z" fill="#C9C9C9"/>
<path d="M47.2894 51.7925C47.2944 50.8305 46.7084 50.0455 45.9814 50.0425C45.2504 50.0385 44.6554 50.8175 44.6504 51.7795C44.6464 52.7435 45.2344 53.5275 45.9644 53.5315C46.6914 53.5345 47.2844 52.7555 47.2894 51.7925Z" fill="#E2E2E2"/>
<path d="M51.889 53.6703L56.199 53.7923C56.199 53.7923 56.889 44.0023 50.91 43.4273L45.959 43.2563C45.959 43.2563 52.696 46.1583 51.889 53.6703Z" fill="#49595A"/>
<path d="M41.1522 53.2253C41.1522 53.2253 41.3222 43.8803 46.9792 44.6963C46.9792 44.6963 51.9282 45.2153 51.0542 53.7193L51.8882 53.6713C51.8882 53.6713 52.9002 43.4883 46.3432 43.3083C46.3432 43.3083 40.1712 42.9833 40.3802 53.2223L41.1522 53.2253Z" fill="#424F4F"/>
<path d="M22.1927 41.7094L22.1816 44.0645L127.072 44.5574L127.083 42.2024L22.1927 41.7094Z" fill="#22231F"/>
<path d="M122.907 0.409302L122.68 48.8313L130.809 48.8695L131.036 0.447508L122.907 0.409302Z" fill="#D7DDDB"/>
</svg>
