<svg width="62" height="59" viewBox="0 0 62 59" fill="none" xmlns="http://www.w3.org/2000/svg">
<path d="M18.3246 0H11.1816V6.64799H18.3246V0Z" fill="#FCC491"/>
<path d="M11.336 0H5.91602V6.64799H11.336V0Z" fill="#CB8371"/>
<path d="M16.2486 0H13.0566V1.686H16.2486V0Z" fill="#EAB488"/>
<path d="M5.91602 6.649L11.336 0V6.649H5.91602Z" fill="#B26E60"/>
<path d="M21.4979 6.07593H14.4199V12.9999H21.4979V6.07593Z" fill="#FCC491"/>
<path d="M14.5721 6.07593H9.20508V12.9999H14.5721V6.07593Z" fill="#CB8371"/>
<path d="M19.4383 6.07593H16.2793V7.83292H19.4383V6.07593Z" fill="#EAB488"/>
<path d="M9.20508 12.9999L14.5721 6.07593V12.9999H9.20508Z" fill="#B26E60"/>
<path d="M14.2722 6.07593H7.20117V12.9999H14.2722V6.07593Z" fill="#FCC491"/>
<path d="M7.34943 6.07593H1.98242V12.9999H7.34943V6.07593Z" fill="#CB8371"/>
<path d="M12.2137 6.07593H9.05273V7.83292H12.2137V6.07593Z" fill="#EAB488"/>
<path d="M1.98242 12.9999L7.34943 6.07593V12.9999H1.98242Z" fill="#B26E60"/>
<path d="M23.7496 12.6709H15.1426V20.6869H23.7496V12.6709Z" fill="#FCC491"/>
<path d="M15.329 12.6709H8.79297V20.6869H15.329V12.6709Z" fill="#CB8371"/>
<path d="M21.2484 12.6709H17.4004V14.7039H21.2484V12.6709Z" fill="#EAB488"/>
<path d="M8.79297 20.6869L15.329 12.6709V20.6869H8.79297Z" fill="#B26E60"/>
<path d="M14.9586 12.6709H6.35156V20.6869H14.9586V12.6709Z" fill="#FCC491"/>
<path d="M6.533 12.6709H0V20.6869H6.533V12.6709Z" fill="#CB8371"/>
<path d="M12.4564 12.6709H8.60938V14.7039H12.4564V12.6709Z" fill="#EAB488"/>
<path d="M0 20.6869L6.533 12.6709V20.6869H0Z" fill="#B26E60"/>
<path d="M23.6563 20.6719H2.98633V22.5289H23.6563V20.6719Z" fill="#323230"/>
<path d="M25.2344 21.5039H3.02539V22.4969H25.2344V21.5039Z" fill="#22231F"/>
<path d="M25.3752 12.1919H22.9902V51.9439H25.3752V12.1919Z" fill="#22231F"/>
<path d="M25.3746 12.1919H24.1836V51.5599H25.3746V12.1919Z" fill="#323230"/>
<path d="M54.1779 57.578L57.2099 57.566C57.2099 57.566 61.0089 55.802 59.9449 50.565C59.9449 50.565 59.1859 47.923 57.5359 46.949H54.1289L54.1779 57.578Z" fill="#323230"/>
<path d="M57.7653 52.258C57.7653 55.188 56.1383 57.566 54.1293 57.566C52.1193 57.566 50.4883 55.188 50.4883 52.258C50.4883 49.327 52.1193 46.949 54.1293 46.949C56.1383 46.949 57.7653 49.327 57.7653 52.258Z" fill="#22231F"/>
<path d="M30.9326 57.6139H33.8896C33.8896 57.6139 37.5327 55.9269 36.5087 50.9059C36.5087 50.9059 35.7836 48.3719 34.1996 47.4419H30.9316V57.6139H30.9326Z" fill="#323230"/>
<path d="M34.4223 52.5259C34.4223 55.3369 32.8593 57.6139 30.9333 57.6139C29.0063 57.6139 27.4473 55.3379 27.4473 52.5259C27.4473 49.7179 29.0063 47.4409 30.9333 47.4409C32.8593 47.4409 34.4223 49.7179 34.4223 52.5259Z" fill="#22231F"/>
<path d="M48.1367 15.716C48.1367 15.716 41.9617 28.326 42.1647 40.599H40.5547C40.5547 40.599 40.9537 21.096 46.6227 15.626L48.1367 15.716Z" fill="#323230"/>
<path d="M58.8865 16.809L46.6945 16.898C46.6945 16.898 42.4625 21.601 40.6365 41.9L38.8125 41.845C38.8125 41.845 40.1515 21.997 45.7315 14.986C45.8055 14.9 59.3375 14.978 59.3375 14.978L58.8865 16.809Z" fill="#22231F"/>
<path d="M32.355 42.1301H53.354V36.2271L32 36.661L32.355 42.1301Z" fill="#22231F"/>
<path d="M35.0055 42.3111H19.8125L19.8995 37.8961L35.0055 36.3501V42.3111Z" fill="#DD9505"/>
<path d="M61.384 15.374H59.127V36.129H61.384V15.374Z" fill="#22231F"/>
<path d="M61.3824 15.374H60.1094V36.129H61.3824V15.374Z" fill="#323230"/>
<path d="M51.375 32.188H43.748V37.657H51.375V32.188Z" fill="#22231F"/>
<path d="M51.3041 32.188H46.0781V36.364H51.3041V32.188Z" fill="#3F3F3D"/>
<path d="M60.2711 36.0491H46.0781V41.4131H60.2711V36.0491Z" fill="#3F3F3D"/>
<path d="M41.5861 16.386C41.5861 16.386 36.4651 26.02 35.5331 41.926L34.1211 41.516C34.1211 41.516 35.0861 22.101 40.7551 16.632L41.5861 16.386Z" fill="#323230"/>
<path d="M53.4221 15.3979H51.1641V36.151H53.4221V15.3979Z" fill="#22231F"/>
<path d="M53.4214 15.3979H52.1504V36.151H53.4214V15.3979Z" fill="#323230"/>
<path d="M52.9219 16.8089L40.7469 16.8979C40.7469 16.8979 36.4189 20.1409 34.2999 41.9589L32.8809 41.8459C32.8809 41.8459 34.2209 21.9979 39.7909 14.9869C39.8619 14.9009 52.9219 14.9289 52.9219 14.9289V16.8089Z" fill="#22231F"/>
<path d="M61.4151 36.0549H51.3301V51.9429H61.4151V36.0549Z" fill="#FFCA09"/>
<path d="M61.408 14.9319H52.582V16.7869H61.408V14.9319Z" fill="#22231F"/>
<path d="M42.2069 47.082H29.7949V48.238H42.2069V47.082Z" fill="#FFCA09"/>
<path d="M61.4147 35.7119H51.3027V36.1079H61.4147V35.7119Z" fill="#FFCA09"/>
<path d="M44.8553 41.344H19.2383V43.331H44.8553V41.344Z" fill="#DD9505"/>
<path d="M20.6152 37.833L33.4112 36.532L33.1642 38.556L20.6152 39.998V37.833Z" fill="#FFCA09"/>
<path d="M51.4146 35.709H48.2346L44.3596 41.266H20.6406V44.844V45.726V51.94H51.4096V46.881H51.4146V35.709Z" fill="#DD9505"/>
<path d="M51.4422 45.23H20.6152V48.038H51.4422V45.23Z" fill="#EF9E00"/>
<path d="M51.4109 50.5691H20.6699V51.9401H51.4109V50.5691Z" fill="#FFCA09"/>
<path d="M44.3725 41.241H32.8965V42.191H44.3725V41.241Z" fill="#FFAD1D"/>
<path d="M51.4144 35.709H48.2344V36.656H51.4144V35.709Z" fill="#FFAD1D"/>
<path d="M44.3711 42.191L48.2341 36.657V35.709L44.3711 41.241V42.191Z" fill="#FFAD1D"/>
<path d="M21.2688 12.3259H18.8828V52.1479H21.2688V12.3259Z" fill="#22231F"/>
<path d="M21.2681 12.3259H20.0781V52.1269H21.2681V12.3259Z" fill="#323230"/>
<path d="M20.8178 54.18L22.7928 54.325C22.7928 54.325 24.1588 49.1121 26.0868 48.3501L24.5348 47.3C24.5348 47.3 19.7328 48.93 20.8178 54.18Z" fill="#131314"/>
<path d="M25.1533 58.163L28.3603 58.065C28.3603 58.065 32.0583 56.495 30.9693 51.566C30.9693 51.566 30.1943 49.084 28.5063 48.166H25.0293L25.1533 58.163Z" fill="#323230"/>
<path d="M28.7446 53.159C28.7446 55.915 27.0805 58.152 25.0305 58.152C22.9785 58.152 21.3105 55.915 21.3105 53.159C21.3105 50.402 22.9785 48.165 25.0305 48.165C27.0805 48.165 28.7446 50.402 28.7446 53.159Z" fill="#22231F"/>
<path d="M27.7328 53.063C27.7328 51.146 26.4908 49.593 24.9568 49.593C23.4208 49.593 22.1758 51.147 22.1758 53.063C22.1758 54.979 23.4208 56.533 24.9568 56.533C26.4908 56.534 27.7328 54.979 27.7328 53.063Z" fill="#ECF0F1"/>
<path d="M26.2919 50.726C25.8959 50.33 25.4049 50.094 24.8689 50.094C23.5859 50.094 22.5469 51.432 22.5469 53.078C22.5469 54.722 23.5859 56.06 24.8689 56.06C25.4049 56.06 25.8949 55.823 26.2919 55.432C26.8359 54.886 27.1899 54.033 27.1899 53.078C27.1899 52.121 26.8359 51.272 26.2919 50.726Z" fill="#C9C9C9"/>
<path d="M25.9072 53.057C25.9072 51.991 25.2522 51.125 24.4472 51.125C23.6432 51.125 22.9902 51.991 22.9902 53.057C22.9902 54.123 23.6432 54.989 24.4472 54.989C25.2522 54.99 25.9072 54.124 25.9072 53.057Z" fill="#C9C9C9"/>
<path d="M25.8387 55.432C26.3837 54.886 26.7377 54.033 26.7377 53.078C26.7377 52.121 26.3827 51.272 25.8387 50.726C25.4997 50.388 25.0867 50.168 24.6387 50.11C24.7107 50.103 24.7897 50.094 24.8677 50.094C25.4037 50.094 25.8937 50.33 26.2907 50.726C26.8347 51.272 27.1887 52.121 27.1887 53.078C27.1887 54.033 26.8337 54.886 26.2907 55.432C25.8947 55.823 25.4037 56.06 24.8677 56.06C24.7907 56.06 24.7117 56.054 24.6387 56.046C25.0867 55.987 25.5007 55.77 25.8387 55.432Z" fill="#C9C9C9"/>
<path d="M25.302 53.1101C25.302 52.4041 24.869 51.8311 24.34 51.8311C23.806 51.8311 23.373 52.4041 23.373 53.1101C23.373 53.8151 23.806 54.3881 24.34 54.3881C24.87 54.3881 25.302 53.8151 25.302 53.1101Z" fill="#E2E2E2"/>
<path d="M28.6769 54.469L31.8289 54.541C31.8289 54.541 32.2989 47.374 27.9209 46.977L24.2969 46.866C24.2969 46.866 29.2399 48.966 28.6769 54.469Z" fill="#49595A"/>
<path d="M20.8177 54.18C20.8177 54.18 20.9107 47.338 25.0557 47.916C25.0557 47.916 28.6767 48.28 28.0657 54.503L28.6767 54.468C28.6767 54.468 29.3797 47.012 24.5797 46.903C24.5797 46.903 20.0627 46.686 20.2477 54.18H20.8177Z" fill="#424F4F"/>
<path d="M40.3656 54.116L42.3446 54.261C42.3446 54.261 43.7076 49.049 45.6366 48.29L44.0846 47.24C44.0846 47.24 39.2846 48.868 40.3656 54.116Z" fill="#131314"/>
<path d="M44.7031 58.0998L47.9131 58.0028C47.9131 58.0028 51.6051 56.4348 50.5201 51.5028C50.5201 51.5028 49.7441 49.0208 48.0581 48.1038H44.5781L44.7031 58.0998Z" fill="#323230"/>
<path d="M48.2943 53.0998C48.2943 55.8518 46.6313 58.0928 44.5773 58.0928C42.5253 58.0928 40.8613 55.8528 40.8613 53.0998C40.8613 50.3398 42.5253 48.1028 44.5773 48.1028C46.6313 48.1028 48.2943 50.3398 48.2943 53.0998Z" fill="#22231F"/>
<path d="M47.2846 52.9997C47.2846 51.0867 46.0406 49.5317 44.5036 49.5317C42.9696 49.5317 41.7246 51.0867 41.7246 52.9997C41.7246 54.9187 42.9696 56.4717 44.5036 56.4717C46.0406 56.4717 47.2846 54.9187 47.2846 52.9997Z" fill="#ECF0F1"/>
<path d="M45.8378 50.6649C45.4458 50.2719 44.9528 50.0359 44.4138 50.0359C43.1378 50.0359 42.0918 51.3729 42.0918 53.0179C42.0918 54.6589 43.1378 55.9979 44.4138 55.9979C44.9528 55.9979 45.4458 55.7609 45.8378 55.3669C46.3858 54.8229 46.7358 53.9709 46.7358 53.0179C46.7368 52.0609 46.3858 51.2089 45.8378 50.6649Z" fill="#C9C9C9"/>
<path d="M45.4561 52.9979C45.4561 51.9299 44.8021 51.0669 43.9971 51.0669C43.1901 51.0669 42.5371 51.9289 42.5371 52.9979C42.5371 54.0649 43.1901 54.9279 43.9971 54.9279C44.8011 54.9279 45.4561 54.0649 45.4561 52.9979Z" fill="#C9C9C9"/>
<path d="M45.3885 55.3657C45.9345 54.8217 46.2845 53.9697 46.2845 53.0167C46.2845 52.0607 45.9335 51.2087 45.3885 50.6637C45.0495 50.3267 44.6365 50.1017 44.1895 50.0467C44.2625 50.0387 44.3365 50.0337 44.4145 50.0337C44.9535 50.0337 45.4465 50.2697 45.8385 50.6627C46.3865 51.2067 46.7365 52.0587 46.7365 53.0157C46.7365 53.9677 46.3855 54.8207 45.8385 55.3647C45.4465 55.7587 44.9535 55.9957 44.4145 55.9957C44.3375 55.9957 44.2635 55.9907 44.1895 55.9807C44.6365 55.9267 45.0495 55.7067 45.3885 55.3657Z" fill="#C9C9C9"/>
<path d="M44.8519 53.0468C44.8519 52.3408 44.4219 51.7698 43.8879 51.7698C43.3529 51.7698 42.9219 52.3408 42.9219 53.0468C42.9219 53.7528 43.3529 54.3248 43.8879 54.3248C44.4219 54.3248 44.8519 53.7518 44.8519 53.0468Z" fill="#E2E2E2"/>
<path d="M48.2217 54.4069L51.3747 54.4799C51.3747 54.4799 51.8467 47.3099 47.4697 46.9139L43.8457 46.8069C43.8457 46.8069 48.7847 48.9069 48.2217 54.4069Z" fill="#49595A"/>
<path d="M40.3646 54.116C40.3646 54.116 40.4576 47.276 44.6006 47.856C44.6006 47.856 48.2226 48.218 47.6096 54.443L48.2226 54.407C48.2226 54.407 48.9316 46.949 44.1286 46.841C44.1286 46.841 39.6126 46.625 39.8006 54.116H40.3646Z" fill="#424F4F"/>
</svg>
