<svg width="452" height="158" viewBox="0 0 452 158" fill="none" xmlns="http://www.w3.org/2000/svg">
<path d="M226.084 78.1611C110.697 78.1611 -7.79281 88.6631 2.59819 122.991H449.572C465.164 88.6641 341.473 78.1611 226.084 78.1611Z" fill="#88931C"/>
<g opacity="0.7">
<path d="M112.937 22.1699C112.383 22.1699 111.839 22.2299 111.323 22.3379C109.883 19.3149 106.403 17.1799 102.335 17.1799C99.0147 17.1799 96.0777 18.6089 94.3347 20.7809C93.7967 20.6769 93.2257 20.6169 92.6467 20.6169C88.4077 20.6169 84.9727 23.5439 84.9727 27.1429C84.9727 30.1929 87.4247 32.7459 90.7367 33.4689V33.6779H112.936C116.672 33.6779 119.704 31.1029 119.704 27.9229C119.704 24.7449 116.672 22.1699 112.937 22.1699Z" fill="white"/>
</g>
<g opacity="0.7">
<path d="M45.447 24.3101C44.888 24.3101 44.34 24.3711 43.812 24.4841C42.356 21.4191 38.835 19.2551 34.712 19.2551C31.346 19.2551 28.372 20.7001 26.605 22.9051C26.059 22.7991 25.482 22.7391 24.898 22.7391C20.605 22.7391 17.125 25.7011 17.125 29.3501C17.125 32.4381 19.605 35.0181 22.962 35.7531V35.9681H45.447C49.234 35.9681 52.302 33.3591 52.302 30.1381C52.303 26.9161 49.234 24.3101 45.447 24.3101Z" fill="white"/>
</g>
<g opacity="0.7">
<path d="M352.8 17.4211C352.322 17.4211 351.853 17.4751 351.403 17.5701C350.161 14.9561 347.16 13.1101 343.642 13.1101C340.767 13.1101 338.227 14.3421 336.722 16.2241C336.259 16.1341 335.768 16.0841 335.269 16.0841C331.606 16.0841 328.633 18.6081 328.633 21.7221C328.633 24.3561 330.757 26.5561 333.613 27.1841V27.3671H352.8C356.026 27.3671 358.647 25.1411 358.647 22.3961C358.646 19.6461 356.025 17.4211 352.8 17.4211Z" fill="white"/>
</g>
<g opacity="0.7">
<path d="M424.512 22.8151C424.029 22.8151 423.554 22.8691 423.104 22.9631C421.851 20.3271 418.813 18.4661 415.265 18.4661C412.367 18.4661 409.804 19.7111 408.285 21.6061C407.817 21.5161 407.318 21.4631 406.814 21.4631C403.115 21.4631 400.121 24.0161 400.121 27.1571C400.121 29.8151 402.26 32.0411 405.148 32.6691V32.8541H424.512C427.773 32.8541 430.416 30.6071 430.416 27.8341C430.416 25.0631 427.772 22.8151 424.512 22.8151Z" fill="white"/>
</g>
<path d="M21.5436 65.0191L20.3516 98.9271L25.0326 98.8211L23.0176 64.9861L21.5436 65.0191Z" fill="#A16324"/>
<g opacity="0.1">
<path d="M22.1973 65.0101L22.5673 98.8491L25.0313 98.8211L23.0163 64.9861L22.1973 65.0101Z" fill="black"/>
</g>
<path d="M40.188 95.873L35.683 87.044H37.205L32.63 78.085H35.187L30.979 69.831H33.175L22.609 49.126L13.122 69.831H15.178L11.395 78.085H13.486L9.38002 87.044H10.835L6.79102 95.873H40.188Z" fill="#B4CA32"/>
<path d="M40.188 95.871L35.682 87.044H37.204L32.632 78.084H35.186L30.979 69.831H33.175L29.691 63.001C29.77 64.084 29.817 65.188 29.817 66.312C29.817 79.882 23.633 90.88 16.001 90.88C13.907 90.88 11.921 90.046 10.141 88.563L6.79102 95.872L40.188 95.871Z" fill="#88931C"/>
<g opacity="0.1">
<path d="M40.1873 95.8731L35.6823 87.0441H37.2023L32.6293 78.0851H35.1863L30.9743 69.8311H33.1723L22.6523 49.2151V95.8731H40.1873Z" fill="black"/>
</g>
<path d="M50.0633 77.034L49.2812 99.312L52.3543 99.243L51.0303 77.011L50.0633 77.034Z" fill="#A16324"/>
<g opacity="0.1">
<path d="M50.4922 77.03L50.7362 99.259L52.3542 99.243L51.0302 77.011L50.4922 77.03Z" fill="black"/>
</g>
<path d="M62.3131 97.305L59.3511 91.505H60.3501L57.3471 85.619H59.0271L56.2601 80.197H57.7011L50.7641 66.592L44.5311 80.197H45.8791L43.3961 85.619H44.7671L42.0741 91.505H43.0251L40.3691 97.305H62.3131Z" fill="#B4CA32"/>
<path d="M62.3131 97.305L59.3511 91.505H60.3501L57.3471 85.619H59.0271L56.2601 80.197H57.7011L50.7641 66.592L44.5311 80.197H45.8791L43.3961 85.619H44.7671L42.0741 91.505H43.0251L40.3691 97.305H62.3131Z" fill="#B4CA32"/>
<path d="M62.312 97.303L59.353 91.505H60.352L57.348 85.619H59.03L56.26 80.197H57.706L55.417 75.707C55.468 76.42 55.499 77.145 55.499 77.884C55.499 86.798 51.437 94.026 46.421 94.026C45.044 94.026 43.74 93.476 42.571 92.503L40.373 97.305H62.312V97.303Z" fill="#88931C"/>
<g opacity="0.1">
<path d="M62.31 97.3049L59.351 91.5049H60.35L57.347 85.6189H59.027L56.26 80.1969H57.701L50.793 66.6499V97.3049H62.31Z" fill="black"/>
</g>
<path d="M64.8845 71.383L63.8965 99.502L67.7755 99.415L66.1075 71.354L64.8845 71.383Z" fill="#A16324"/>
<g opacity="0.1">
<path d="M65.4297 71.374L65.7367 99.439L67.7767 99.415L66.1087 71.354L65.4297 71.374Z" fill="black"/>
</g>
<path d="M80.3484 96.9709L76.6134 89.6499H77.8754L74.0814 82.2189H76.1984L72.7124 75.3729H74.5324L65.7684 58.2019L57.8994 75.3729H59.6084L56.4684 82.2189H58.2034L54.8004 89.6499H56.0034L52.6504 96.9709H80.3484Z" fill="#B4CA32"/>
<path d="M80.3484 96.9709L76.6134 89.6499H77.8754L74.0814 82.2189H76.1984L72.7124 75.3729H74.5324L65.7684 58.2019L57.8994 75.3729H59.6084L56.4684 82.2189H58.2034L54.8004 89.6499H56.0034L52.6504 96.9709H80.3484Z" fill="#B4CA32"/>
<path d="M80.3484 96.9668L76.6134 89.6498H77.8754L74.0814 82.2178H76.2034L72.7124 75.3718H74.5324L71.6424 69.7068C71.7094 70.6028 71.7464 71.5208 71.7464 72.4528C71.7464 83.7068 66.6184 92.8258 60.2904 92.8258C58.5514 92.8258 56.9054 92.1348 55.4324 90.9038L52.6504 96.9658L80.3484 96.9668Z" fill="#88931C"/>
<g opacity="0.1">
<path d="M80.3477 96.9709L76.6127 89.6499H77.8747L74.0807 82.2189H76.1977L72.7077 75.3729H74.5317L65.8047 58.2759V96.9709H80.3477Z" fill="black"/>
</g>
<path d="M20.5565 66.7169C20.9175 65.4349 20.4255 62.8459 19.3935 62.4399C18.3575 62.0339 17.1715 63.9609 16.8105 65.2429C16.4455 66.5239 16.9925 67.8919 18.0255 68.3019C19.0635 68.7069 20.1975 67.9989 20.5565 66.7169Z" fill="#C9D551"/>
<path d="M21.3866 70.138C21.5026 70.653 21.2436 71.184 20.8076 71.321C20.3726 71.456 19.9226 71.151 19.8066 70.636C19.6916 70.122 19.9506 69.594 20.3846 69.458C20.8226 69.316 21.2676 69.623 21.3866 70.138Z" fill="#919C24"/>
<path d="M18.6702 74.8499C19.2892 74.5789 20.0952 73.3879 19.8772 72.6929C19.6582 71.9969 18.4982 72.0619 17.8802 72.3329C17.2662 72.6019 16.9412 73.3849 17.1602 74.0789C17.3762 74.7739 18.0532 75.1189 18.6702 74.8499Z" fill="#C9D551"/>
<path d="M64.3078 73.1151C64.6708 71.8351 64.1778 69.2461 63.1438 68.8371C62.1078 68.4301 60.9248 70.3591 60.5638 71.6421C60.1958 72.9221 60.7438 74.2931 61.7798 74.7001C62.8168 75.1051 63.9468 74.3981 64.3078 73.1151Z" fill="#C9D551"/>
<path d="M65.1351 76.5369C65.2531 77.0509 64.9951 77.5789 64.5601 77.7189C64.1221 77.8559 63.6731 77.5499 63.5581 77.0349C63.4391 76.5199 63.7001 75.9929 64.1341 75.8549C64.5711 75.7139 65.0191 76.0229 65.1351 76.5369Z" fill="#919C24"/>
<path d="M62.4205 81.247C63.0385 80.978 63.8455 79.786 63.6315 79.093C63.4085 78.397 62.2485 78.462 61.6335 78.731C61.0155 79.002 60.6945 79.783 60.9115 80.48C61.1295 81.174 61.8055 81.519 62.4205 81.247Z" fill="#C9D551"/>
<path d="M137.728 72.2141C139.345 72.2141 140.725 73.0661 141.289 74.2701C141.526 74.1841 141.778 74.1341 142.043 74.1341C143.264 74.1341 144.25 75.1221 144.25 76.3421C144.25 77.5611 143.263 78.5471 142.043 78.5471C141.393 78.5471 140.809 78.2611 140.405 77.8111C139.712 78.3851 138.769 78.7391 137.729 78.7391C135.609 78.7391 133.891 77.2801 133.891 75.4781C133.89 73.6771 135.608 72.2141 137.728 72.2141Z" fill="#B4CA32"/>
<path d="M137.613 76.4331C137.613 76.4331 135.726 81.0091 133.671 81.5491L133.279 83.0591C133.279 83.0591 137.076 81.7481 137.613 76.4331Z" fill="#A16324"/>
<g opacity="0.1">
<path d="M137.614 76.4331C137.614 76.4331 136.734 80.8221 133.688 82.3191L133.92 81.3751C133.92 81.3751 135.479 81.2741 137.614 76.4331Z" fill="black"/>
</g>
<path d="M136.397 72.4211C136.308 72.7131 136.257 73.0211 136.257 73.3371C136.257 75.3661 138.204 77.0151 140.605 77.0151C142.036 77.0151 143.3 76.4271 144.093 75.5261C144.195 75.7791 144.25 76.0541 144.25 76.3431C144.25 77.5621 143.263 78.5481 142.043 78.5481C141.391 78.5481 140.809 78.2621 140.405 77.8121C139.712 78.3861 138.769 78.7401 137.729 78.7401C135.609 78.7401 133.891 77.2811 133.891 75.4791C133.89 74.0731 134.935 72.8811 136.397 72.4211Z" fill="#88931C"/>
<g opacity="0.1">
<path d="M137.727 72.2141C138.059 72.2141 138.377 72.2581 138.686 72.3261V78.6321C138.377 78.7001 138.059 78.7391 137.727 78.7391C135.607 78.7391 133.889 77.2801 133.889 75.4781C133.889 73.6771 135.607 72.2141 137.727 72.2141Z" fill="black"/>
</g>
<path d="M131.784 65.1751L130.834 92.2181L134.563 92.1321L132.96 65.1501L131.784 65.1751Z" fill="#A16324"/>
<g opacity="0.1">
<path d="M132.307 65.1681L132.602 92.1551L134.563 92.1321L132.96 65.1501L132.307 65.1681Z" fill="black"/>
</g>
<path d="M146.165 58.2071C146.165 55.5551 143.76 53.4081 140.794 53.4081C139.757 53.4081 138.795 53.6751 137.976 54.1271C137.395 51.5231 134.971 49.5691 132.065 49.5691C129.705 49.5691 127.669 50.8601 126.674 52.7361C126.241 52.6771 125.801 52.6401 125.35 52.6401C120.529 52.6401 116.621 55.9921 116.621 60.1231C116.621 64.2581 120.528 67.6101 125.35 67.6101C127.603 67.6101 129.65 66.8711 131.196 65.6701C132.217 66.1681 133.438 66.4591 134.752 66.4591C135.404 66.4591 136.032 66.3841 136.627 66.2531C137.209 67.2761 138.556 67.9931 140.122 67.9931C142.224 67.9931 143.928 66.7021 143.928 65.1141C143.928 64.1601 143.311 63.3171 142.365 62.7921C144.567 62.1921 146.165 60.3681 146.165 58.2071Z" fill="#B4CA32"/>
<path d="M146.165 58.2072C146.165 55.5552 143.76 53.4082 140.794 53.4082C139.757 53.4082 138.795 53.6752 137.976 54.1272C137.944 53.9882 137.903 53.8502 137.865 53.7162C137.875 53.8992 137.883 54.0852 137.883 54.2732C137.883 59.6232 132.473 63.9642 125.797 63.9642C122.139 63.9642 118.866 62.6592 116.648 60.6002C116.937 64.5122 120.716 67.6102 125.35 67.6102C127.603 67.6102 129.65 66.8712 131.196 65.6702C132.217 66.1682 133.438 66.4592 134.752 66.4592C135.404 66.4592 136.032 66.3842 136.627 66.2532C137.209 67.2762 138.556 67.9932 140.122 67.9932C142.224 67.9932 143.928 66.7022 143.928 65.1142C143.928 64.1602 143.311 63.3172 142.365 62.7922C144.567 62.1922 146.165 60.3682 146.165 58.2072Z" fill="#88931C"/>
<g opacity="0.1">
<path d="M146.166 58.27C146.166 55.623 143.761 53.473 140.795 53.473C139.758 53.473 138.796 53.74 137.977 54.191C137.413 51.656 135.093 49.742 132.291 49.644V66.161C133.049 66.393 133.88 66.523 134.753 66.523C135.405 66.523 136.033 66.45 136.628 66.316C137.21 67.341 138.557 68.056 140.123 68.056C142.225 68.056 143.929 66.77 143.929 65.18C143.929 64.225 143.312 63.383 142.366 62.858C144.568 62.258 146.166 60.432 146.166 58.27Z" fill="black"/>
</g>
<path d="M127.428 69.7202C125.812 69.7202 124.432 70.5732 123.865 71.7762C123.631 71.6902 123.375 71.6412 123.113 71.6412C121.893 71.6412 120.906 72.6262 120.906 73.8482C120.906 75.0652 121.893 76.0542 123.113 76.0542C123.765 76.0542 124.349 75.7682 124.752 75.3202C125.443 75.8932 126.385 76.2472 127.428 76.2472C129.547 76.2472 131.266 74.7852 131.266 72.9842C131.266 71.1822 129.546 69.7202 127.428 69.7202Z" fill="#B4CA32"/>
<path d="M127.543 73.937C127.543 73.937 129.427 78.513 131.484 79.055L131.875 80.563C131.875 80.563 128.079 79.255 127.543 73.937Z" fill="#A16324"/>
<g opacity="0.1">
<path d="M127.543 73.937C127.543 73.937 128.421 78.327 131.467 79.823L131.234 78.881C131.234 78.881 129.676 78.78 127.543 73.937Z" fill="black"/>
</g>
<path d="M128.759 69.926C128.847 70.218 128.897 70.524 128.897 70.841C128.897 72.872 126.95 74.52 124.55 74.52C123.119 74.52 121.855 73.933 121.063 73.031C120.961 73.284 120.906 73.556 120.906 73.847C120.906 75.064 121.893 76.053 123.113 76.053C123.765 76.053 124.349 75.767 124.752 75.319C125.443 75.892 126.388 76.246 127.428 76.246C129.548 76.246 131.266 74.784 131.266 72.983C131.266 71.579 130.221 70.385 128.759 69.926Z" fill="#88931C"/>
<g opacity="0.1">
<path d="M127.43 69.7202C127.096 69.7202 126.779 69.7662 126.469 69.8332V76.1402C126.778 76.2062 127.096 76.2462 127.43 76.2462C129.55 76.2462 131.268 74.7842 131.268 72.9832C131.268 71.1822 129.549 69.7202 127.43 69.7202Z" fill="black"/>
</g>
<path d="M124.415 58.773C123.006 59.23 120.17 58.562 119.737 57.215C119.301 55.87 121.434 54.354 122.846 53.898C124.257 53.444 125.753 54.165 126.187 55.511C126.62 56.858 125.828 58.318 124.415 58.773Z" fill="#C9D551"/>
<path d="M124.995 62.468C125.704 62.403 126.827 61.571 126.765 60.897C126.702 60.221 125.475 59.956 124.767 60.021C124.058 60.088 123.535 60.689 123.597 61.364C123.659 62.039 124.287 62.534 124.995 62.468Z" fill="#C9D551"/>
<path d="M127.837 58.8541C127.837 59.2661 127.504 59.6001 127.093 59.6001C126.682 59.6001 126.348 59.2661 126.348 58.8541C126.348 58.4421 126.682 58.1111 127.093 58.1111C127.504 58.1111 127.837 58.4421 127.837 58.8541Z" fill="#919C24"/>
<path d="M142.246 76.3772C141.731 76.5422 140.699 76.2992 140.542 75.8082C140.383 75.3182 141.163 74.7652 141.675 74.6002C142.191 74.4342 142.734 74.6982 142.893 75.1882C143.05 75.6782 142.76 76.2102 142.246 76.3772Z" fill="#C9D551"/>
<path d="M124.592 72.8352C124.852 72.8142 125.26 72.5092 125.238 72.2642C125.213 72.0182 124.767 71.9212 124.509 71.9452C124.252 71.9712 124.062 72.1882 124.084 72.4342C124.106 72.6802 124.334 72.8612 124.592 72.8352Z" fill="#C9D551"/>
<path d="M125.628 71.521C125.628 71.669 125.507 71.791 125.358 71.791C125.21 71.791 125.086 71.669 125.086 71.521C125.086 71.37 125.21 71.25 125.358 71.25C125.507 71.25 125.628 71.371 125.628 71.521Z" fill="#919C24"/>
<path d="M139.717 75.46C139.977 75.435 140.386 75.132 140.363 74.885C140.34 74.641 139.892 74.542 139.634 74.568C139.375 74.592 139.186 74.809 139.209 75.055C139.23 75.302 139.457 75.481 139.717 75.46Z" fill="#C9D551"/>
<path d="M140.753 74.1431C140.753 74.2901 140.632 74.4121 140.481 74.4121C140.332 74.4121 140.213 74.2911 140.213 74.1431C140.213 73.9911 140.333 73.8701 140.481 73.8701C140.632 73.8701 140.753 73.9911 140.753 74.1431Z" fill="#919C24"/>
<path d="M429.336 134.171C436.856 134.031 444.27 133.819 451.215 133.104V108.75C418.723 128.989 411.055 118.691 395.924 108.215C336.438 67.0291 305.401 88.8421 291.268 106.781C281.475 119.212 273.114 112.807 273.114 112.807C239.011 114.451 225.497 114.861 216.46 104.59C175.184 57.6921 147.403 77.463 135.6 93.087C109.123 128.129 86.885 118.826 72.343 111.164C45.9 97.2361 41.257 94.853 29.987 91.991C20.275 89.525 8.622 95.3961 0 101.273V135.063C38.556 136.193 158.416 139.737 159.801 140.195C161.452 140.744 370.478 135.266 429.336 134.171Z" fill="#6E7215"/>
<path d="M110.865 88.0171C110.865 88.0171 119.908 91.6791 120.663 100.184H122.383C122.383 100.184 121.524 90.2791 110.865 88.0171Z" fill="#69862A"/>
<path d="M123.574 100.184C123.574 100.184 122.918 92.6439 114.807 90.9229C114.807 90.9229 121.69 93.7119 122.262 100.184H123.574Z" fill="#586F22"/>
<path d="M133.391 87.9619C133.391 87.9619 124.347 91.6249 123.595 100.132H121.871C121.871 100.132 122.732 90.2249 133.391 87.9619Z" fill="#69862A"/>
<path d="M122.661 100.719C122.661 100.719 119.252 93.963 125.245 88.229C125.245 88.229 120.857 94.221 123.776 100.028L122.661 100.719Z" fill="#586F22"/>
<path d="M123.646 84.022C123.646 84.022 118.848 92.52 123.552 99.646L122.203 100.719C122.203 100.719 116.714 92.429 123.646 84.022Z" fill="#8CA738"/>
<path d="M234.101 72.081C234.101 69.75 233.025 67.664 231.333 66.243C231.949 65.166 232.31 63.912 232.31 62.569C232.31 58.58 229.185 55.347 225.329 55.347C225.309 55.347 225.292 55.351 225.273 55.351C223.775 50.948 219.558 47.772 214.579 47.772C208.346 47.772 203.296 52.741 203.296 58.869C203.296 59.406 203.346 59.933 203.422 60.45C200.873 62.042 199.176 64.838 199.176 68.027C199.176 70.622 200.3 72.952 202.086 74.591C201.254 76.279 200.788 78.179 200.788 80.183C200.788 87.284 206.643 93.041 213.863 93.041C216.564 93.041 219.075 92.234 221.16 90.856C221.961 91.127 222.818 91.279 223.713 91.279C228.067 91.279 231.596 87.81 231.596 83.531C231.596 81.764 230.989 80.142 229.98 78.84C232.434 77.515 234.101 74.986 234.101 72.081Z" fill="#B4CA32"/>
<path d="M233.925 72.05C233.925 69.716 232.859 67.627 231.175 66.204C231.787 65.125 232.146 63.869 232.146 62.524C232.146 58.651 229.225 55.498 225.554 55.311C226.251 57.73 226.634 60.335 226.634 63.053C226.634 75.815 218.271 86.161 207.957 86.161C205.772 86.161 203.679 85.695 201.73 84.842C203.617 89.641 208.322 93.042 213.83 93.042C216.51 93.042 219.002 92.235 221.072 90.853C221.869 91.125 222.72 91.28 223.612 91.28C227.933 91.28 231.435 87.805 231.435 83.515C231.435 81.748 230.835 80.125 229.833 78.819C232.272 77.49 233.925 74.959 233.925 72.05Z" fill="#88931C"/>
<g opacity="0.1">
<path d="M234.037 72.1129C234.037 69.7859 232.982 67.7019 231.317 66.2829C231.923 65.2049 232.278 63.9559 232.278 62.6139C232.278 58.6309 229.208 55.4019 225.423 55.4019C225.406 55.4019 225.39 55.4049 225.371 55.4049C223.956 51.1679 220.058 48.0799 215.402 47.8599V92.9779C217.582 92.7689 219.606 92.0239 221.332 90.8609C222.119 91.1309 222.961 91.2849 223.843 91.2849C228.112 91.2849 231.577 87.8209 231.577 83.5439C231.577 81.7829 230.978 80.1639 229.989 78.8619C232.403 77.5369 234.037 75.0109 234.037 72.1129Z" fill="black"/>
</g>
<path d="M214.696 83.812L213.42 112.315L218.446 112.225L216.284 83.781L214.696 83.812Z" fill="#A16324"/>
<path d="M216.595 90.4421C216.595 90.4421 222.108 83.9141 222.241 78.6221C222.241 78.6221 218.358 86.8261 216.463 87.5751L216.595 90.4421Z" fill="#A16324"/>
<path d="M211.5 80.6951C211.5 80.6951 212.094 88.1021 214.783 89.8241L214.65 92.1621C214.65 92.1621 209.823 88.5461 211.5 80.6951Z" fill="#A16324"/>
<g opacity="0.1">
<path d="M215.402 83.804L215.799 112.251L218.445 112.225L216.283 83.781L215.402 83.804Z" fill="black"/>
</g>
<g opacity="0.1">
<path d="M216.626 88.4011C216.626 88.4011 220.509 84.7191 222.24 78.6211C222.24 78.6211 218.745 86.1521 216.594 87.5401L216.626 88.4011Z" fill="black"/>
</g>
<g opacity="0.1">
<path d="M211.501 80.6951C211.501 80.6951 210.74 87.3761 214.409 90.9161L214.509 89.4601C214.509 89.4601 212.328 88.6001 211.501 80.6951Z" fill="black"/>
</g>
<path d="M206.367 55.53C206.611 53.801 208.777 51.138 210.428 51.373C212.077 51.606 212.584 54.645 212.34 56.375C212.094 58.105 210.559 59.32 208.912 59.087C207.261 58.853 206.123 57.26 206.367 55.53Z" fill="#C9D551"/>
<path d="M206.431 65.4031C207.766 65.2781 209.883 63.7171 209.766 62.4461C209.646 61.1751 207.335 60.6721 206.001 60.7981C204.667 60.9221 203.681 62.0531 203.799 63.3261C203.92 64.5971 205.097 65.5301 206.431 65.4031Z" fill="#C9D551"/>
<path d="M212.987 60.999C212.987 61.572 212.524 62.033 211.954 62.033C211.387 62.033 210.924 61.572 210.924 60.999C210.924 60.43 211.387 59.969 211.954 59.969C212.524 59.969 212.987 60.43 212.987 60.999Z" fill="#919C24"/>
<path d="M194.485 85.2229C194.485 85.2229 191.215 91.1299 187.851 91.7329L187.146 93.6939C187.146 93.6939 193.375 92.1789 194.485 85.2229Z" fill="#A16324"/>
<g opacity="0.1">
<path d="M194.485 85.2229C194.485 85.2229 192.863 90.9409 187.842 92.7419L188.261 91.5159C188.261 91.5159 190.801 91.4679 194.485 85.2229Z" fill="black"/>
</g>
<path d="M181.303 84.7869C181.303 84.7869 184.169 90.8989 187.488 91.7209L188.057 93.7239C188.057 93.7239 181.942 91.7989 181.303 84.7869Z" fill="#A16324"/>
<g opacity="0.1">
<path d="M181.303 84.7869C181.303 84.7869 182.538 90.5999 187.428 92.7289L187.091 91.4769C187.091 91.4769 184.56 91.2619 181.303 84.7869Z" fill="black"/>
</g>
<path d="M189.174 78.3231C189.088 80.9221 186.408 82.9441 183.194 82.8371C179.977 82.7311 177.439 80.5381 177.528 77.9391C177.619 75.3421 180.295 73.3211 183.512 73.4271C186.726 73.5321 189.261 75.7251 189.174 78.3231Z" fill="#B5D13C"/>
<path d="M193.647 75.359C193.564 77.82 191.026 79.731 187.985 79.631C184.939 79.532 182.538 77.455 182.625 74.995C182.708 72.535 185.241 70.624 188.285 70.724C191.329 70.824 193.729 72.901 193.647 75.359Z" fill="#B5D13C"/>
<path d="M186.502 83.451C186.421 85.864 183.933 87.742 180.949 87.644C177.962 87.544 175.608 85.509 175.687 83.095C175.771 80.682 178.257 78.807 181.241 78.905C184.228 79.003 186.582 81.039 186.502 83.451Z" fill="#B5D13C"/>
<path d="M192.751 83.322C192.67 85.733 190.185 87.609 187.198 87.512C184.211 87.412 181.859 85.377 181.94 82.963C182.021 80.552 184.508 78.675 187.493 78.774C190.479 78.873 192.834 80.907 192.751 83.322Z" fill="#B5D13C"/>
<path d="M199.559 79.0031C199.479 81.4171 196.993 83.2911 194.006 83.1941C191.021 83.0951 188.666 81.0601 188.748 78.6461C188.828 76.2331 191.317 74.3571 194.303 74.4551C197.286 74.5531 199.643 76.5901 199.559 79.0031Z" fill="#B5D13C"/>
<path d="M199.805 84.0581C199.723 86.4721 197.238 88.3481 194.251 88.2481C191.265 88.1491 188.91 86.1151 188.99 83.7011C189.072 81.2881 191.56 79.4111 194.547 79.5101C197.533 79.6081 199.888 81.6461 199.805 84.0581Z" fill="#B5D13C"/>
<path d="M198.68 81.2709C199.209 80.6189 199.531 79.8439 199.558 79.0009C199.63 76.8709 197.829 75.0289 195.366 74.5459C195.459 75.0749 195.51 75.6159 195.49 76.1669C195.316 81.3019 190.202 85.2989 184.062 85.0969C180.826 84.9909 177.957 83.7269 175.991 81.8109C175.813 82.2249 175.703 82.6639 175.686 83.1269C175.606 85.5559 177.957 87.6059 180.945 87.7059C182.24 87.7479 183.443 87.4149 184.394 86.8259C185.203 87.2649 186.157 87.5369 187.195 87.5709C188.383 87.6089 189.489 87.3319 190.399 86.8319C191.355 87.6979 192.719 88.2619 194.248 88.3129C197.234 88.4109 199.721 86.5199 199.804 84.0919C199.84 83.0359 199.414 82.0529 198.68 81.2709Z" fill="#88931C"/>
<path d="M182.979 82.998C182.979 82.998 183.606 86.004 187.006 87.084L187.033 86.284C187.033 86.284 185.564 86.573 182.979 82.998Z" fill="#A16324"/>
<g opacity="0.1">
<path d="M182.979 82.998C182.979 82.998 184.482 86.243 187.015 86.707L187.034 86.285C187.034 86.285 185.364 86.357 182.979 82.998Z" fill="black"/>
</g>
<path d="M190.222 85.1182C190.222 85.1182 189.732 86.8582 187.695 87.3602L187.713 86.8912C187.713 86.8912 188.562 87.1162 190.222 85.1182Z" fill="#A16324"/>
<g opacity="0.1">
<path d="M190.221 85.1182C190.221 85.1182 189.206 86.9662 187.703 87.1382L187.712 86.8902C187.712 86.8902 188.688 86.9972 190.221 85.1182Z" fill="black"/>
</g>
<g opacity="0.1">
<path d="M198.733 81.3009C199.259 80.6529 199.581 79.8849 199.609 79.0469C199.691 76.6349 197.335 74.5969 194.349 74.4999C194.102 74.4919 193.857 74.5019 193.617 74.5189C193.178 72.4639 191.003 70.8569 188.334 70.7679C188.245 70.7649 188.162 70.7759 188.073 70.7759L187.508 87.5549C188.596 87.5489 189.61 87.2799 190.452 86.8229C191.409 87.6789 192.773 88.2419 194.302 88.2909C197.288 88.3909 199.776 86.5139 199.855 84.1009C199.891 83.0529 199.467 82.0799 198.733 81.3009Z" fill="black"/>
</g>
<path d="M187.053 85.657C187.053 85.657 186.722 95.486 186.162 96.562L189.691 96.847C189.691 96.847 187.824 87.366 187.782 85.512L187.053 85.657Z" fill="#A16324"/>
<g opacity="0.1">
<path d="M187.404 85.605L187.851 96.692L189.691 96.847L187.782 85.512L187.404 85.605Z" fill="black"/>
</g>
<path d="M175.587 62.6279C177.961 62.6279 179.985 63.8779 180.818 65.6449C181.163 65.5189 181.536 65.4459 181.925 65.4459C183.716 65.4459 185.166 66.8959 185.166 68.6879C185.166 70.4779 183.716 71.9269 181.925 71.9269C180.967 71.9269 180.11 71.5099 179.517 70.8499C178.499 71.6899 177.114 72.2079 175.586 72.2079C172.471 72.2079 169.949 70.0639 169.949 67.4189C169.95 64.7719 172.472 62.6279 175.587 62.6279Z" fill="#B4CA32"/>
<path d="M175.421 68.821C175.421 68.821 172.649 75.539 169.63 76.335L169.055 78.55C169.055 78.55 174.631 76.628 175.421 68.821Z" fill="#A16324"/>
<g opacity="0.1">
<path d="M175.421 68.821C175.421 68.821 174.127 75.268 169.654 77.463L169.998 76.078C169.998 76.078 172.285 75.933 175.421 68.821Z" fill="black"/>
</g>
<path d="M173.631 62.929C173.501 63.36 173.425 63.808 173.425 64.273C173.425 67.254 176.283 69.673 179.81 69.673C181.913 69.673 183.771 68.813 184.934 67.49C185.083 67.86 185.166 68.265 185.166 68.688C185.166 70.478 183.716 71.927 181.925 71.927C180.967 71.927 180.11 71.51 179.517 70.85C178.499 71.69 177.114 72.208 175.586 72.208C172.471 72.208 169.949 70.064 169.949 67.419C169.949 65.357 171.483 63.606 173.631 62.929Z" fill="#88931C"/>
<g opacity="0.1">
<path d="M175.586 62.6279C176.074 62.6279 176.542 62.6919 176.992 62.7939V72.0519C176.542 72.1509 176.074 72.2079 175.586 72.2079C172.471 72.2079 169.949 70.0639 169.949 67.4189C169.949 64.7719 172.471 62.6279 175.586 62.6279Z" fill="black"/>
</g>
<path d="M166.856 52.2929L165.465 92.0009L170.94 91.8759L168.589 52.2529L166.856 52.2929Z" fill="#A16324"/>
<g opacity="0.1">
<path d="M167.625 52.2849L168.058 91.9069L170.939 91.8759L168.588 52.2529L167.625 52.2849Z" fill="black"/>
</g>
<path d="M187.983 42.06C187.983 38.168 184.449 35.016 180.091 35.016C178.57 35.016 177.155 35.405 175.951 36.07C175.098 32.247 171.538 29.377 167.273 29.377C163.805 29.377 160.813 31.272 159.35 34.026C158.717 33.943 158.071 33.887 157.409 33.887C150.327 33.887 144.588 38.809 144.588 44.876C144.588 50.946 150.328 55.867 157.409 55.867C160.715 55.867 163.721 54.784 165.995 53.024C167.494 53.75 169.287 54.177 171.217 54.177C172.175 54.177 173.1 54.069 173.97 53.875C174.829 55.376 176.804 56.431 179.105 56.431C182.192 56.431 184.694 54.538 184.694 52.202C184.694 50.804 183.791 49.564 182.4 48.797C185.63 47.912 187.983 45.231 187.983 42.06Z" fill="#B4CA32"/>
<path d="M187.982 42.0599C187.982 38.1679 184.448 35.0159 180.09 35.0159C178.569 35.0159 177.154 35.4049 175.95 36.0699C175.902 35.8649 175.847 35.6639 175.787 35.4639C175.807 35.7349 175.819 36.0059 175.819 36.2829C175.819 44.1419 167.869 50.5119 158.065 50.5119C152.693 50.5119 147.882 48.5969 144.627 45.5759C145.05 51.3189 150.601 55.8669 157.408 55.8669C160.714 55.8669 163.72 54.7839 165.994 53.0239C167.493 53.7499 169.286 54.1769 171.216 54.1769C172.174 54.1769 173.099 54.0689 173.969 53.8759C174.828 55.3759 176.803 56.4309 179.104 56.4309C182.191 56.4309 184.693 54.5379 184.693 52.2019C184.693 50.8039 183.79 49.5639 182.399 48.7969C185.629 47.9119 187.982 45.2309 187.982 42.0599Z" fill="#88931C"/>
<g opacity="0.1">
<path d="M187.984 42.1509C187.984 38.2629 184.45 35.1079 180.091 35.1079C178.571 35.1079 177.156 35.4979 175.952 36.1619C175.122 32.4389 171.719 29.6299 167.598 29.4849V53.7379C168.716 54.0779 169.934 54.2699 171.214 54.2699C172.176 54.2699 173.1 54.1629 173.97 53.9689C174.829 55.4709 176.804 56.5239 179.105 56.5239C182.192 56.5239 184.694 54.6319 184.694 52.2979C184.694 50.8959 183.791 49.6589 182.4 48.8869C185.631 48.0059 187.984 45.3269 187.984 42.1509Z" fill="black"/>
</g>
<path d="M160.462 58.9648C158.084 58.9648 156.06 60.2158 155.227 61.9818C154.883 61.8548 154.509 61.7818 154.12 61.7818C152.33 61.7818 150.879 63.2338 150.879 65.0238C150.879 66.8138 152.331 68.2648 154.12 68.2648C155.078 68.2648 155.934 67.8458 156.532 67.1848C157.546 68.0248 158.931 68.5458 160.463 68.5458C163.575 68.5458 166.096 66.4008 166.096 63.7548C166.096 61.1118 163.574 58.9648 160.462 58.9648Z" fill="#B4CA32"/>
<path d="M160.625 65.158C160.625 65.158 163.394 71.877 166.416 72.671L166.992 74.887C166.992 74.887 161.416 72.967 160.625 65.158Z" fill="#A16324"/>
<g opacity="0.1">
<path d="M160.625 65.158C160.625 65.158 161.915 71.603 166.39 73.8L166.049 72.417C166.049 72.417 163.758 72.268 160.625 65.158Z" fill="black"/>
</g>
<path d="M162.412 59.2668C162.542 59.6978 162.62 60.1448 162.62 60.6098C162.62 63.5928 159.759 66.0108 156.232 66.0108C154.129 66.0108 152.272 65.1498 151.108 63.8248C150.959 64.1968 150.877 64.5998 150.877 65.0238C150.877 66.8138 152.329 68.2648 154.118 68.2648C155.076 68.2648 155.932 67.8458 156.53 67.1848C157.544 68.0248 158.929 68.5458 160.461 68.5458C163.573 68.5458 166.094 66.4008 166.094 63.7548C166.095 61.6958 164.559 59.9418 162.412 59.2668Z" fill="#88931C"/>
<g opacity="0.1">
<path d="M160.463 58.9648C159.972 58.9648 159.503 59.0298 159.055 59.1288V68.3888C159.504 68.4888 159.973 68.5458 160.463 68.5458C163.575 68.5458 166.096 66.4008 166.096 63.7548C166.097 61.1118 163.575 58.9648 160.463 58.9648Z" fill="black"/>
</g>
<path d="M158.035 45.8159C155.372 46.6739 150.02 45.4169 149.202 42.8789C148.383 40.3369 152.406 37.4759 155.071 36.6169C157.733 35.7599 160.557 37.1219 161.378 39.6619C162.196 42.2019 160.701 44.9579 158.035 45.8159Z" fill="#C9D551"/>
<path d="M164.491 45.967C164.491 46.743 163.865 47.372 163.086 47.372C162.311 47.372 161.682 46.743 161.682 45.967C161.682 45.192 162.311 44.563 163.086 44.563C163.865 44.562 164.491 45.191 164.491 45.967Z" fill="#919C24"/>
<path d="M159.193 92.4031C159.193 92.4031 157.053 96.2701 154.849 96.6641L154.391 97.9471C154.391 97.9471 158.466 96.9561 159.193 92.4031Z" fill="#A16324"/>
<g opacity="0.1">
<path d="M159.194 92.4031C159.194 92.4031 158.132 96.1461 154.846 97.3251L155.12 96.5221C155.12 96.5221 156.784 96.4911 159.194 92.4031Z" fill="black"/>
</g>
<path d="M150.564 92.1182C150.564 92.1182 152.438 96.1172 154.61 96.6562L154.984 97.9692C154.984 97.9692 150.981 96.7092 150.564 92.1182Z" fill="#A16324"/>
<g opacity="0.1">
<path d="M150.564 92.1182C150.564 92.1182 151.372 95.9242 154.571 97.3172L154.351 96.4982C154.351 96.4982 152.695 96.3562 150.564 92.1182Z" fill="black"/>
</g>
<path d="M155.716 87.8882C155.657 89.5902 153.908 90.9112 151.801 90.8432C149.697 90.7732 148.038 89.3382 148.093 87.6362C148.152 85.9362 149.905 84.6152 152.009 84.6832C154.115 84.7532 155.774 86.1872 155.716 87.8882Z" fill="#B5D13C"/>
<path d="M158.644 85.9461C158.589 87.5561 156.931 88.8101 154.939 88.7441C152.947 88.6781 151.377 87.3191 151.431 85.7091C151.484 84.1001 153.144 82.8481 155.134 82.9131C157.128 82.9811 158.697 84.3381 158.644 85.9461Z" fill="#B5D13C"/>
<path d="M153.969 91.2431C153.915 92.8231 152.286 94.0531 150.333 93.9881C148.377 93.9241 146.836 92.5901 146.888 91.0091C146.941 89.4311 148.571 88.2031 150.524 88.2681C152.481 88.3331 154.022 89.6641 153.969 91.2431Z" fill="#B5D13C"/>
<path d="M158.06 91.1591C158.004 92.7381 156.378 93.9671 154.424 93.9011C152.468 93.8381 150.929 92.5051 150.982 90.9261C151.035 89.3461 152.662 88.1181 154.618 88.1831C156.57 88.2471 158.113 89.5801 158.06 91.1591Z" fill="#B5D13C"/>
<path d="M162.514 88.333C162.461 89.914 160.834 91.141 158.879 91.076C156.926 91.012 155.384 89.678 155.437 88.098C155.489 86.521 157.117 85.292 159.072 85.357C161.026 85.421 162.567 86.752 162.514 88.333Z" fill="#B5D13C"/>
<path d="M162.675 91.6411C162.62 93.2211 160.994 94.4481 159.041 94.3841C157.085 94.3211 155.542 92.9861 155.597 91.4071C155.65 89.8281 157.278 88.6011 159.233 88.6631C161.187 88.7301 162.729 90.0621 162.675 91.6411Z" fill="#B5D13C"/>
<path d="M161.94 89.8171C162.285 89.3911 162.496 88.8841 162.514 88.3311C162.562 86.9351 161.381 85.7311 159.77 85.4141C159.831 85.7601 159.864 86.1151 159.853 86.4761C159.736 89.8361 156.392 92.4521 152.373 92.3211C150.252 92.2501 148.377 91.4251 147.088 90.1701C146.972 90.4401 146.9 90.7271 146.888 91.0311C146.836 92.6201 148.375 93.9621 150.333 94.0281C151.18 94.0561 151.965 93.8371 152.587 93.4531C153.117 93.7401 153.745 93.9181 154.424 93.9391C155.198 93.9651 155.926 93.7821 156.521 93.4561C157.144 94.0221 158.038 94.3921 159.038 94.4251C160.995 94.4891 162.621 93.2521 162.672 91.6641C162.697 90.9731 162.42 90.3311 161.94 89.8171Z" fill="#88931C"/>
<path d="M151.662 90.949C151.662 90.949 152.073 92.915 154.296 93.622L154.314 93.099C154.314 93.099 153.354 93.289 151.662 90.949Z" fill="#A16324"/>
<g opacity="0.1">
<path d="M151.662 90.949C151.662 90.949 152.645 93.073 154.305 93.376L154.315 93.098C154.315 93.098 153.224 93.146 151.662 90.949Z" fill="black"/>
</g>
<path d="M156.399 92.334C156.399 92.334 156.081 93.475 154.748 93.802L154.758 93.495C154.758 93.495 155.315 93.642 156.399 92.334Z" fill="#A16324"/>
<g opacity="0.1">
<path d="M156.4 92.334C156.4 92.334 155.742 93.544 154.756 93.657L154.759 93.494C154.759 93.494 155.398 93.564 156.4 92.334Z" fill="black"/>
</g>
<g opacity="0.1">
<path d="M161.973 89.8371C162.319 89.4131 162.53 88.9101 162.547 88.3621C162.603 86.7831 161.062 85.4501 159.105 85.3851C158.944 85.3811 158.781 85.3871 158.626 85.3981C158.342 84.0541 156.914 83.0011 155.169 82.9421C155.111 82.9421 155.056 82.9481 154.999 82.9481L154.627 93.9301C155.341 93.9271 156.003 93.7511 156.556 93.4511C157.182 94.0131 158.073 94.3811 159.073 94.4131C161.031 94.4771 162.655 93.2481 162.709 91.6701C162.733 90.9841 162.453 90.3471 161.973 89.8371Z" fill="black"/>
</g>
<path d="M154.327 92.687C154.327 92.687 154.11 99.122 153.746 99.826L156.057 100.013C156.057 100.013 154.835 93.805 154.808 92.594L154.327 92.687Z" fill="#A16324"/>
<g opacity="0.1">
<path d="M154.561 92.653L154.85 99.909L156.057 100.013L154.809 92.594L154.561 92.653Z" fill="black"/>
</g>
<path d="M84.6301 74.323H81.9941V95.343H84.6301V74.323Z" fill="#A16324"/>
<g opacity="0.1">
<path d="M84.6308 74.626H83.4238V95.343H84.6308V74.626Z" fill="black"/>
</g>
<path d="M92.4521 67.0032C92.4521 75.7272 88.1811 82.7981 82.9111 82.7981C77.6431 82.7981 73.3711 75.7262 73.3711 67.0032C73.3711 58.2782 77.6431 39.8582 82.9111 39.8582C88.1811 39.8582 92.4521 58.2782 92.4521 67.0032Z" fill="#B4CA32"/>
<path d="M89.0049 48.155C89.0189 48.633 89.0249 49.113 89.0249 49.597C89.0249 63.53 83.8839 74.824 77.5399 74.824C76.4139 74.824 75.3279 74.463 74.2969 73.8C75.8319 79.12 79.1119 82.799 82.9119 82.799C88.1819 82.799 92.4529 75.727 92.4529 67.004C92.4529 62.116 91.1129 54.187 89.0049 48.155Z" fill="#88931C"/>
<g opacity="0.1">
<path d="M92.5439 67.0441C92.5439 58.3601 88.2339 40.1551 82.8809 39.7261V82.9451C88.2339 82.7781 92.5439 75.7271 92.5439 67.0441Z" fill="black"/>
</g>
<path d="M104.337 79.0677L103.057 79.8162L108.228 88.6624L109.509 87.9139L104.337 79.0677Z" fill="#A16324"/>
<g opacity="0.1">
<path d="M103.683 79.3614L103.018 79.7515L108.237 88.6509L108.902 88.2609L103.683 79.3614Z" fill="black"/>
</g>
<path d="M113.539 78.7107L108.367 87.5569L109.647 88.3054L114.819 79.4591L113.539 78.7107Z" fill="#A16324"/>
<g opacity="0.1">
<path d="M114.181 78.9965L108.977 87.9033L109.642 88.2923L114.847 79.3855L114.181 78.9965Z" fill="black"/>
</g>
<path d="M109.779 79.2002H107.701V95.7602H109.779V79.2002Z" fill="#A16324"/>
<g opacity="0.1">
<path d="M109.777 79.437H108.826V95.76H109.777V79.437Z" fill="black"/>
</g>
<path d="M121.931 71.2342C121.931 77.1662 115.79 81.9752 108.215 81.9752C100.638 81.9752 94.498 77.1662 94.498 71.2342C94.498 65.3012 100.638 52.7732 108.215 52.7732C115.79 52.7732 121.931 65.3012 121.931 71.2342Z" fill="#B4CA32"/>
<path d="M116.974 58.415C116.993 58.74 117.004 59.066 117.004 59.397C117.004 68.871 109.611 76.551 100.491 76.551C98.8721 76.551 97.3081 76.306 95.8301 75.854C98.0371 79.475 102.75 81.975 108.214 81.975C115.789 81.975 121.93 77.166 121.93 71.234C121.93 67.909 120.001 62.517 116.974 58.415Z" fill="#88931C"/>
<g opacity="0.1">
<path d="M122.068 71.2611C122.068 65.3561 115.869 52.9751 108.17 52.6831V82.0761C115.869 81.9621 122.068 77.1671 122.068 71.2611Z" fill="black"/>
</g>
<path d="M77.8625 49.2741C78.0265 48.1081 79.4845 46.3191 80.5945 46.4751C81.7035 46.6311 82.0455 48.6771 81.8815 49.8411C81.7185 51.0081 80.6845 51.8231 79.5735 51.6671C78.4615 51.5101 77.6965 50.4391 77.8625 49.2741Z" fill="#C9D551"/>
<path d="M78.25 58.989C79.212 58.901 80.745 57.771 80.656 56.853C80.572 55.935 78.903 55.571 77.94 55.661C76.975 55.753 76.262 56.569 76.349 57.488C76.435 58.406 77.286 59.081 78.25 58.989Z" fill="#C9D551"/>
<path d="M78.1961 53.495C78.1961 53.979 77.8051 54.368 77.3251 54.368C76.8421 54.368 76.4531 53.979 76.4531 53.495C76.4531 53.016 76.8421 52.625 77.3251 52.625C77.8061 52.625 78.1961 53.015 78.1961 53.495Z" fill="#919C24"/>
<path d="M101.905 59.1131C102.071 57.9481 103.529 56.1551 104.637 56.3141C105.746 56.4721 106.088 58.5181 105.924 59.6811C105.76 60.8461 104.727 61.6631 103.615 61.5051C102.506 61.3481 101.74 60.2771 101.905 59.1131Z" fill="#C9D551"/>
<path d="M102.292 68.8282C103.255 68.7382 104.785 67.6112 104.7 66.6932C104.616 65.7722 102.946 65.4102 101.983 65.5002C101.019 65.5902 100.306 66.4072 100.392 67.3272C100.477 68.2442 101.327 68.9192 102.292 68.8282Z" fill="#C9D551"/>
<path d="M102.239 63.3331C102.239 63.8151 101.849 64.2061 101.368 64.2061C100.886 64.2061 100.496 63.8151 100.496 63.3331C100.496 62.8521 100.887 62.4631 101.368 62.4631C101.85 62.4631 102.239 62.8521 102.239 63.3331Z" fill="#919C24"/>
<path d="M75.3691 89.7302C75.3691 89.7302 80.5281 91.8172 80.9571 96.6672H81.9391C81.9391 96.6672 81.4471 91.0182 75.3691 89.7302Z" fill="#69862A"/>
<path d="M82.6152 96.6672C82.6152 96.6672 82.2432 92.3702 77.6152 91.3872C77.6152 91.3872 81.5412 92.9772 81.8682 96.6672H82.6152Z" fill="#586F22"/>
<path d="M88.2125 89.6982C88.2125 89.6982 83.0575 91.7862 82.6285 96.6372H81.6465C81.6465 96.6372 82.1355 90.9882 88.2125 89.6982Z" fill="#69862A"/>
<path d="M82.0948 96.9721C82.0948 96.9721 80.1528 93.1191 83.5678 89.8521C83.5678 89.8521 81.0678 93.2671 82.7298 96.5791L82.0948 96.9721Z" fill="#586F22"/>
<path d="M82.6576 87.4512C82.6576 87.4512 79.9216 92.2962 82.6026 96.3602L81.8346 96.9722C81.8346 96.9722 78.7036 92.2452 82.6576 87.4512Z" fill="#8CA738"/>
<path d="M100.35 89.8862C100.35 89.8862 105.505 91.9732 105.935 96.8232H106.92C106.92 96.8232 106.428 91.1742 100.35 89.8862Z" fill="#69862A"/>
<path d="M107.597 96.8232C107.597 96.8232 107.223 92.5262 102.598 91.5422C102.598 91.5422 106.524 93.1332 106.849 96.8232H107.597Z" fill="#586F22"/>
<path d="M113.194 89.8542C113.194 89.8542 108.038 91.9422 107.607 96.7922H106.625C106.625 96.7922 107.117 91.1442 113.194 89.8542Z" fill="#69862A"/>
<path d="M107.076 97.1281C107.076 97.1281 105.133 93.2751 108.547 90.0071C108.547 90.0071 106.048 93.4221 107.71 96.7341L107.076 97.1281Z" fill="#586F22"/>
<path d="M107.636 87.6072C107.636 87.6072 104.9 92.4522 107.583 96.5152L106.813 97.1282C106.813 97.1282 103.682 92.4012 107.636 87.6072Z" fill="#8CA738"/>
<path d="M248.372 78.4429H245.736V99.4629H248.372V78.4429Z" fill="#A16324"/>
<g opacity="0.1">
<path d="M248.373 78.7458H247.166V99.4628H248.373V78.7458Z" fill="black"/>
</g>
<path d="M256.194 71.123C256.194 79.847 251.923 86.918 246.652 86.918C241.384 86.918 237.113 79.846 237.113 71.123C237.113 62.398 241.384 43.978 246.652 43.978C251.923 43.979 256.194 62.398 256.194 71.123Z" fill="#B4CA32"/>
<path d="M252.746 52.2749C252.76 52.7529 252.766 53.2329 252.766 53.7169C252.766 67.6499 247.625 78.9439 241.282 78.9439C240.157 78.9439 239.07 78.5829 238.039 77.9199C239.573 83.2399 242.854 86.9189 246.653 86.9189C251.924 86.9189 256.195 79.8469 256.195 71.1239C256.194 66.2359 254.854 58.3079 252.746 52.2749Z" fill="#88931C"/>
<g opacity="0.1">
<path d="M256.287 71.1639C256.287 62.4799 251.976 44.2749 246.623 43.8459V87.0649C251.977 86.8979 256.287 79.8469 256.287 71.1639Z" fill="black"/>
</g>
<path d="M268.073 83.1852L266.793 83.9338L271.966 92.779L273.246 92.0304L268.073 83.1852Z" fill="#A16324"/>
<g opacity="0.1">
<path d="M267.415 83.4766L266.75 83.8667L271.97 92.7651L272.635 92.375L267.415 83.4766Z" fill="black"/>
</g>
<path d="M277.276 82.8247L272.105 91.6729L273.386 92.421L278.556 83.5729L277.276 82.8247Z" fill="#A16324"/>
<g opacity="0.1">
<path d="M277.928 83.1272L272.723 92.0349L273.388 92.4239L278.593 83.5162L277.928 83.1272Z" fill="black"/>
</g>
<path d="M273.52 83.3201H271.443V99.8811H273.52V83.3201Z" fill="#A16324"/>
<g opacity="0.1">
<path d="M273.519 83.5579H272.568V99.8809H273.519V83.5579Z" fill="black"/>
</g>
<path d="M285.674 75.3541C285.674 81.2861 279.532 86.0951 271.957 86.0951C264.381 86.0951 258.24 81.2861 258.24 75.3541C258.24 69.4211 264.381 56.8931 271.957 56.8931C279.532 56.8941 285.674 69.4211 285.674 75.3541Z" fill="#B4CA32"/>
<path d="M280.718 62.5349C280.736 62.8599 280.748 63.1859 280.748 63.5169C280.748 72.9909 273.355 80.6709 264.235 80.6709C262.616 80.6709 261.051 80.4259 259.574 79.9739C261.78 83.5949 266.494 86.0949 271.958 86.0949C279.533 86.0949 285.675 81.2859 285.675 75.3539C285.675 72.0289 283.745 66.6369 280.718 62.5349Z" fill="#88931C"/>
<g opacity="0.1">
<path d="M285.81 75.381C285.81 69.476 279.611 57.095 271.912 56.803V86.196C279.611 86.082 285.81 81.287 285.81 75.381Z" fill="black"/>
</g>
<path d="M241.605 53.395C241.769 52.229 243.226 50.44 244.337 50.596C245.445 50.752 245.787 52.798 245.623 53.962C245.46 55.129 244.426 55.944 243.315 55.788C242.205 55.63 241.439 54.559 241.605 53.395Z" fill="#C9D551"/>
<path d="M241.991 63.1089C242.953 63.0209 244.486 61.8909 244.397 60.9729C244.312 60.0549 242.644 59.6909 241.681 59.7809C240.716 59.8729 240.003 60.6889 240.089 61.6079C240.176 62.5259 241.027 63.2009 241.991 63.1089Z" fill="#C9D551"/>
<path d="M241.939 57.6149C241.939 58.0989 241.548 58.4879 241.068 58.4879C240.585 58.4879 240.195 58.0989 240.195 57.6149C240.195 57.1359 240.585 56.7449 241.068 56.7449C241.549 56.7449 241.939 57.1349 241.939 57.6149Z" fill="#919C24"/>
<path d="M265.647 63.233C265.813 62.068 267.271 60.275 268.379 60.434C269.488 60.592 269.83 62.638 269.666 63.801C269.502 64.966 268.469 65.783 267.357 65.625C266.249 65.468 265.483 64.397 265.647 63.233Z" fill="#C9D551"/>
<path d="M266.033 72.948C266.996 72.858 268.525 71.731 268.441 70.813C268.357 69.892 266.686 69.53 265.723 69.62C264.759 69.71 264.046 70.527 264.132 71.447C264.219 72.364 265.068 73.039 266.033 72.948Z" fill="#C9D551"/>
<path d="M265.981 67.453C265.981 67.935 265.591 68.326 265.11 68.326C264.629 68.326 264.238 67.935 264.238 67.453C264.238 66.972 264.629 66.583 265.11 66.583C265.592 66.583 265.981 66.972 265.981 67.453Z" fill="#919C24"/>
<path d="M239.111 93.8501C239.111 93.8501 244.27 95.9371 244.7 100.787H245.682C245.682 100.787 245.19 95.1381 239.111 93.8501Z" fill="#69862A"/>
<path d="M246.359 100.787C246.359 100.787 245.986 96.4901 241.359 95.5071C241.359 95.5071 245.285 97.0971 245.612 100.787H246.359Z" fill="#586F22"/>
<path d="M251.957 93.8181C251.957 93.8181 246.802 95.9061 246.373 100.756H245.391C245.391 100.756 245.88 95.1081 251.957 93.8181Z" fill="#69862A"/>
<path d="M245.838 101.092C245.838 101.092 243.897 97.2402 247.312 93.9722C247.312 93.9722 244.812 97.3872 246.473 100.698L245.838 101.092Z" fill="#586F22"/>
<path d="M246.402 91.571C246.402 91.571 243.667 96.416 246.346 100.48L245.578 101.092C245.578 101.092 242.448 96.365 246.402 91.571Z" fill="#8CA738"/>
<path d="M264.092 94.0061C264.092 94.0061 269.247 96.0931 269.678 100.943H270.662C270.662 100.943 270.17 95.2941 264.092 94.0061Z" fill="#69862A"/>
<path d="M271.34 100.943C271.34 100.943 270.965 96.6461 266.34 95.6621C266.34 95.6621 270.266 97.2531 270.591 100.943H271.34Z" fill="#586F22"/>
<path d="M276.936 93.9751C276.936 93.9751 271.781 96.0631 271.349 100.913H270.367C270.367 100.913 270.859 95.2641 276.936 93.9751Z" fill="#69862A"/>
<path d="M270.818 101.248C270.818 101.248 268.875 97.395 272.29 94.127C272.29 94.127 269.791 97.543 271.453 100.854L270.818 101.248Z" fill="#586F22"/>
<path d="M271.38 91.7271C271.38 91.7271 268.644 96.5721 271.327 100.635L270.557 101.248C270.557 101.248 267.427 96.5211 271.38 91.7271Z" fill="#8CA738"/>
<path d="M294.834 55.507L293.406 96.146L299.016 96.019L296.601 55.467L294.834 55.507Z" fill="#A16324"/>
<g opacity="0.1">
<path d="M295.623 55.496L296.065 96.052L299.018 96.019L296.603 55.467L295.623 55.496Z" fill="black"/>
</g>
<path d="M317.182 92.485L311.782 81.904H313.607L308.123 71.167H311.187L306.145 61.274H308.776L296.113 36.459L284.744 61.274H287.208L282.672 71.167H285.18L280.259 81.904H282.003L277.156 92.485H317.182Z" fill="#B4CA32"/>
<path d="M317.182 92.4829L311.783 81.9039H313.608L308.129 71.1659H311.189L306.147 61.2739H308.778L304.601 53.0869C304.698 54.3849 304.753 55.7089 304.753 57.0559C304.753 73.3199 297.341 86.5009 288.195 86.5009C285.684 86.5009 283.305 85.5019 281.171 83.7229L277.156 92.4829H317.182Z" fill="#88931C"/>
<g opacity="0.1">
<path d="M317.183 92.4849L311.783 81.9039H313.606L308.124 71.1669H311.188L306.142 61.2739H308.774L296.168 36.5649V92.4849H317.183Z" fill="black"/>
</g>
<path d="M329.017 69.9069L328.08 96.6069L331.763 96.5239L330.176 69.8789L329.017 69.9069Z" fill="#A16324"/>
<g opacity="0.1">
<path d="M329.531 69.9019L329.824 96.5429L331.762 96.5239L330.175 69.8789L329.531 69.9019Z" fill="black"/>
</g>
<path d="M343.698 94.2021L340.148 87.2511H341.346L337.746 80.1961H339.76L336.444 73.6981H338.172L329.856 57.3931L322.387 73.6981H324.002L321.026 80.1961H322.669L319.441 87.2511H320.582L317.398 94.2021H343.698Z" fill="#B4CA32"/>
<path d="M343.698 94.2021L340.148 87.2511H341.346L337.746 80.1961H339.76L336.444 73.6981H338.172L329.856 57.3931L322.387 73.6981H324.002L321.026 80.1961H322.669L319.441 87.2511H320.582L317.398 94.2021H343.698Z" fill="#B4CA32"/>
<path d="M343.699 94.1999L340.152 87.2509H341.348L337.748 80.1959H339.764L336.445 73.6969H338.176L335.433 68.3149C335.496 69.1689 335.533 70.0389 335.533 70.9239C335.533 81.6069 330.665 90.2699 324.653 90.2699C323.003 90.2699 321.44 89.6109 320.038 88.4439L317.404 94.1989L343.699 94.1999Z" fill="#88931C"/>
<g opacity="0.1">
<path d="M343.695 94.2019L340.15 87.2509H341.348L337.748 80.1959H339.762L336.446 73.6979H338.174L329.893 57.4619V94.2019H343.695Z" fill="black"/>
</g>
<path d="M346.783 63.1339L345.6 96.8349L350.249 96.7309L348.25 63.0989L346.783 63.1339Z" fill="#A16324"/>
<g opacity="0.1">
<path d="M347.436 63.1229L347.804 96.7599L350.249 96.7309L348.25 63.0989L347.436 63.1229Z" fill="black"/>
</g>
<path d="M365.315 93.8019L360.839 85.0269H362.351L357.804 76.1219H360.341L356.164 67.9149H358.345L347.841 47.3369L338.411 67.9149H340.458L336.695 76.1219H338.774L334.696 85.0269H336.138L332.119 93.8019H365.315Z" fill="#B4CA32"/>
<path d="M365.315 93.8019L360.839 85.0269H362.351L357.804 76.1219H360.341L356.164 67.9149H358.345L347.841 47.3369L338.411 67.9149H340.458L336.695 76.1219H338.774L334.696 85.0269H336.138L332.119 93.8019H365.315Z" fill="#B4CA32"/>
<path d="M365.315 93.797L360.838 85.027H362.35L357.803 76.12H360.346L356.163 67.915H358.344L354.88 61.126C354.96 62.2 355.004 63.301 355.004 64.417C355.004 77.905 348.858 88.835 341.275 88.835C339.19 88.835 337.218 88.006 335.452 86.531L332.119 93.797H365.315Z" fill="#88931C"/>
<g opacity="0.1">
<path d="M365.316 93.8018L360.84 85.0268H362.352L357.805 76.1218H360.342L356.16 67.9148H358.346L347.887 47.4248V93.8018H365.316Z" fill="black"/>
</g>
<path d="M293.655 57.541C294.088 56.005 293.498 52.902 292.261 52.416C291.02 51.929 289.598 54.239 289.166 55.775C288.727 57.31 289.384 58.95 290.622 59.441C291.865 59.928 293.226 59.079 293.655 57.541Z" fill="#C9D551"/>
<path d="M294.647 61.6419C294.786 62.2589 294.476 62.8949 293.954 63.0589C293.433 63.2209 292.894 62.8549 292.755 62.2379C292.617 61.6219 292.927 60.9889 293.447 60.8269C293.972 60.6569 294.506 61.0249 294.647 61.6419Z" fill="#919C24"/>
<path d="M291.396 67.289C292.138 66.963 293.103 65.536 292.842 64.704C292.578 63.87 291.19 63.948 290.447 64.273C289.712 64.595 289.321 65.534 289.585 66.366C289.845 67.198 290.655 67.611 291.396 67.289Z" fill="#C9D551"/>
<path d="M346.09 65.21C346.526 63.675 345.934 60.573 344.695 60.082C343.453 59.594 342.036 61.907 341.602 63.443C341.162 64.978 341.818 66.62 343.059 67.108C344.303 67.596 345.657 66.748 346.09 65.21Z" fill="#C9D551"/>
<path d="M347.083 69.311C347.226 69.926 346.916 70.56 346.394 70.727C345.87 70.892 345.331 70.525 345.193 69.907C345.05 69.29 345.362 68.658 345.883 68.492C346.408 68.325 346.944 68.695 347.083 69.311Z" fill="#919C24"/>
<path d="M343.828 74.9559C344.568 74.6339 345.537 73.2059 345.279 72.3749C345.012 71.5409 343.622 71.6179 342.885 71.9409C342.144 72.2659 341.759 73.2019 342.019 74.0359C342.28 74.8689 343.091 75.2819 343.828 74.9559Z" fill="#C9D551"/>
<path d="M394.523 87.0522C394.523 87.0522 391.284 92.9032 387.953 93.5002L387.254 95.4432C387.254 95.4432 393.424 93.9432 394.523 87.0522Z" fill="#A16324"/>
<g opacity="0.1">
<path d="M394.523 87.0522C394.523 87.0522 392.916 92.7162 387.943 94.5002L388.358 93.2862C388.358 93.2862 390.874 93.2392 394.523 87.0522Z" fill="black"/>
</g>
<path d="M381.467 86.6211C381.467 86.6211 384.306 92.6751 387.593 93.4891L388.156 95.4721C388.156 95.4721 382.101 93.5671 381.467 86.6211Z" fill="#A16324"/>
<g opacity="0.1">
<path d="M381.467 86.6211C381.467 86.6211 382.69 92.3801 387.533 94.4881L387.199 93.2481C387.199 93.2481 384.693 93.0351 381.467 86.6211Z" fill="black"/>
</g>
<path d="M389.262 80.2182C389.176 82.7922 386.522 84.7952 383.338 84.6902C380.15 84.5852 377.637 82.4132 377.725 79.8382C377.815 77.2652 380.466 75.2642 383.653 75.3692C386.837 75.4732 389.348 77.6452 389.262 80.2182Z" fill="#B5D13C"/>
<path d="M393.691 77.2822C393.609 79.7202 391.095 81.6142 388.084 81.5142C385.066 81.4162 382.688 79.3592 382.774 76.9212C382.856 74.4852 385.366 72.5922 388.38 72.6912C391.396 72.7902 393.772 74.8472 393.691 77.2822Z" fill="#B5D13C"/>
<path d="M386.616 85.2972C386.535 87.6872 384.07 89.5462 381.115 89.4502C378.156 89.3512 375.824 87.3352 375.902 84.9442C375.986 82.5542 378.448 80.6962 381.404 80.7932C384.362 80.8922 386.695 82.9092 386.616 85.2972Z" fill="#B5D13C"/>
<path d="M392.805 85.1691C392.725 87.5571 390.263 89.4161 387.304 89.3201C384.345 89.2211 382.016 87.2051 382.096 84.8141C382.177 82.4251 384.64 80.5661 387.597 80.6641C390.555 80.7631 392.887 82.7771 392.805 85.1691Z" fill="#B5D13C"/>
<path d="M399.549 80.8921C399.47 83.2831 397.007 85.1401 394.049 85.0431C391.092 84.9451 388.759 82.9291 388.84 80.5381C388.919 78.1481 391.385 76.2901 394.343 76.3861C397.298 76.4841 399.632 78.5021 399.549 80.8921Z" fill="#B5D13C"/>
<path d="M399.793 85.8993C399.712 88.2903 397.25 90.1483 394.291 90.0493C391.333 89.9513 389.001 87.9363 389.08 85.5453C389.161 83.1553 391.625 81.2963 394.584 81.3933C397.542 81.4913 399.875 83.5093 399.793 85.8993Z" fill="#B5D13C"/>
<path d="M398.678 83.1383C399.202 82.4923 399.521 81.7243 399.547 80.8893C399.618 78.7793 397.834 76.9553 395.395 76.4763C395.487 77.0003 395.538 77.5363 395.518 78.0823C395.346 83.1683 390.28 87.1283 384.199 86.9283C380.994 86.8233 378.152 85.5723 376.204 83.6733C376.028 84.0833 375.919 84.5183 375.902 84.9773C375.823 87.3833 378.152 89.4143 381.111 89.5123C382.394 89.5543 383.587 89.2233 384.528 88.6413C385.329 89.0763 386.274 89.3463 387.302 89.3793C388.479 89.4173 389.574 89.1423 390.475 88.6473C391.422 89.5043 392.773 90.0643 394.288 90.1133C397.246 90.2113 399.709 88.3383 399.791 85.9333C399.827 84.8873 399.404 83.9133 398.678 83.1383Z" fill="#88931C"/>
<path d="M383.125 84.8501C383.125 84.8501 383.747 87.8281 387.115 88.8971L387.141 88.1051C387.141 88.1051 385.686 88.3901 383.125 84.8501Z" fill="#A16324"/>
<g opacity="0.1">
<path d="M383.125 84.8501C383.125 84.8501 384.614 88.0641 387.123 88.5231L387.142 88.1051C387.142 88.1051 385.488 88.1761 383.125 84.8501Z" fill="black"/>
</g>
<path d="M390.3 86.9492C390.3 86.9492 389.816 88.6722 387.797 89.1692L387.815 88.7052C387.815 88.7052 388.656 88.9272 390.3 86.9492Z" fill="#A16324"/>
<g opacity="0.1">
<path d="M390.301 86.9492C390.301 86.9492 389.296 88.7802 387.807 88.9502L387.816 88.7052C387.816 88.7052 388.783 88.8102 390.301 86.9492Z" fill="black"/>
</g>
<g opacity="0.1">
<path d="M398.73 83.1681C399.25 82.5261 399.57 81.7651 399.598 80.9351C399.678 78.5461 397.344 76.5271 394.387 76.4311C394.143 76.4231 393.9 76.4341 393.662 76.4501C393.226 74.4151 391.072 72.8221 388.429 72.7351C388.341 72.7321 388.258 72.7431 388.17 72.7431L387.611 89.3641C388.688 89.3571 389.693 89.0921 390.527 88.6381C391.474 89.4871 392.826 90.0431 394.341 90.0921C397.298 90.1911 399.762 88.3321 399.841 85.9421C399.877 84.9041 399.457 83.9391 398.73 83.1681Z" fill="black"/>
</g>
<path d="M387.161 87.4833C387.161 87.4833 386.833 97.2193 386.279 98.2853L389.775 98.5673C389.775 98.5673 387.926 89.1753 387.884 87.3403L387.161 87.4833Z" fill="#A16324"/>
<g opacity="0.1">
<path d="M387.51 87.4321L387.953 98.4131L389.775 98.5661L387.885 87.3391L387.51 87.4321Z" fill="black"/>
</g>
<path d="M375.805 64.6721C378.157 64.6721 380.161 65.9101 380.987 67.6601C381.329 67.5361 381.699 67.4631 382.084 67.4631C383.858 67.4631 385.295 68.9001 385.295 70.6741C385.295 72.4471 383.859 73.8821 382.084 73.8821C381.136 73.8821 380.287 73.4691 379.699 72.8161C378.69 73.6491 377.319 74.1621 375.806 74.1621C372.72 74.1621 370.223 72.0381 370.223 69.4181C370.222 66.7951 372.719 64.6721 375.805 64.6721Z" fill="#B4CA32"/>
<path d="M375.64 70.8071C375.64 70.8071 372.894 77.4611 369.905 78.2491L369.336 80.4441C369.336 80.4441 374.857 78.5391 375.64 70.8071Z" fill="#A16324"/>
<g opacity="0.1">
<path d="M375.64 70.8071C375.64 70.8071 374.359 77.1931 369.928 79.3671L370.269 77.9951C370.269 77.9951 372.533 77.8511 375.64 70.8071Z" fill="black"/>
</g>
<path d="M373.868 64.9702C373.739 65.3972 373.664 65.8412 373.664 66.3012C373.664 69.2542 376.495 71.6502 379.988 71.6502C382.072 71.6502 383.912 70.7982 385.064 69.4882C385.211 69.8552 385.293 70.2562 385.293 70.6752C385.293 72.4482 383.857 73.8832 382.082 73.8832C381.134 73.8832 380.285 73.4702 379.697 72.8172C378.688 73.6502 377.317 74.1632 375.804 74.1632C372.718 74.1632 370.221 72.0392 370.221 69.4192C370.222 67.3762 371.741 65.6412 373.868 64.9702Z" fill="#88931C"/>
<g opacity="0.1">
<path d="M375.804 64.6721C376.287 64.6721 376.751 64.7351 377.197 64.8361V74.0061C376.751 74.1041 376.287 74.1611 375.804 74.1611C372.718 74.1611 370.221 72.0371 370.221 69.4171C370.221 66.7951 372.718 64.6721 375.804 64.6721Z" fill="black"/>
</g>
<path d="M367.155 54.435L365.777 93.766L371.2 93.643L368.872 54.395L367.155 54.435Z" fill="#A16324"/>
<g opacity="0.1">
<path d="M367.918 54.426L368.348 93.674L371.2 93.643L368.872 54.395L367.918 54.426Z" fill="black"/>
</g>
<path d="M388.084 44.2981C388.084 40.4431 384.584 37.3211 380.267 37.3211C378.76 37.3211 377.36 37.7061 376.165 38.3651C375.32 34.5781 371.794 31.7351 367.569 31.7351C364.134 31.7351 361.171 33.6111 359.721 36.3401C359.094 36.2581 358.454 36.2021 357.798 36.2021C350.783 36.2021 345.098 41.0781 345.098 47.0871C345.098 53.0991 350.783 57.9731 357.798 57.9731C361.072 57.9731 364.05 56.9011 366.303 55.1571C367.788 55.8771 369.564 56.2991 371.476 56.2991C372.424 56.2991 373.34 56.1921 374.203 56.0001C375.054 57.4871 377.01 58.5321 379.289 58.5321C382.348 58.5321 384.826 56.6561 384.826 54.3431C384.826 52.9591 383.93 51.7311 382.554 50.9701C385.753 50.0951 388.084 47.4391 388.084 44.2981Z" fill="#B4CA32"/>
<path d="M388.083 44.298C388.083 40.443 384.583 37.321 380.266 37.321C378.759 37.321 377.359 37.706 376.164 38.365C376.117 38.162 376.062 37.963 376.003 37.764C376.021 38.033 376.034 38.302 376.034 38.576C376.034 46.361 368.159 52.67 358.448 52.67C353.127 52.67 348.362 50.773 345.137 47.781C345.556 53.469 351.054 57.974 357.797 57.974C361.071 57.974 364.049 56.902 366.302 55.158C367.787 55.878 369.563 56.3 371.475 56.3C372.423 56.3 373.339 56.193 374.202 56.002C375.053 57.488 377.009 58.533 379.288 58.533C382.347 58.533 384.825 56.658 384.825 54.344C384.825 52.96 383.929 51.732 382.553 50.971C385.752 50.095 388.083 47.439 388.083 44.298Z" fill="#88931C"/>
<g opacity="0.1">
<path d="M388.084 44.389C388.084 40.538 384.584 37.412 380.266 37.412C378.76 37.412 377.36 37.799 376.165 38.456C375.344 34.768 371.973 31.985 367.891 31.842V55.865C368.998 56.202 370.205 56.392 371.473 56.392C372.425 56.392 373.341 56.287 374.203 56.094C375.054 57.582 377.01 58.625 379.289 58.625C382.348 58.625 384.826 56.751 384.826 54.439C384.826 53.05 383.93 51.825 382.554 51.061C385.753 50.188 388.084 47.534 388.084 44.389Z" fill="black"/>
</g>
<path d="M360.823 61.0432C358.467 61.0432 356.464 62.2822 355.637 64.0312C355.296 63.9052 354.926 63.8332 354.54 63.8332C352.768 63.8332 351.33 65.2712 351.33 67.0442C351.33 68.8172 352.768 70.2552 354.54 70.2552C355.489 70.2552 356.338 69.8402 356.929 69.1862C357.933 70.0192 359.306 70.5342 360.823 70.5342C363.905 70.5342 366.403 68.4092 366.403 65.7882C366.403 63.1702 363.905 61.0432 360.823 61.0432Z" fill="#B4CA32"/>
<path d="M360.984 67.177C360.984 67.177 363.726 73.833 366.719 74.619L367.289 76.814C367.289 76.814 361.767 74.913 360.984 67.177Z" fill="#A16324"/>
<g opacity="0.1">
<path d="M360.984 67.177C360.984 67.177 362.262 73.561 366.694 75.738L366.356 74.368C366.356 74.368 364.088 74.22 360.984 67.177Z" fill="black"/>
</g>
<path d="M362.755 61.343C362.884 61.77 362.961 62.213 362.961 62.673C362.961 65.627 360.127 68.023 356.634 68.023C354.551 68.023 352.712 67.169 351.559 65.857C351.412 66.226 351.33 66.625 351.33 67.045C351.33 68.818 352.768 70.256 354.54 70.256C355.489 70.256 356.338 69.841 356.929 69.187C357.933 70.02 359.306 70.535 360.823 70.535C363.905 70.535 366.403 68.41 366.403 65.789C366.402 63.749 364.882 62.012 362.755 61.343Z" fill="#88931C"/>
<g opacity="0.1">
<path d="M360.823 61.0432C360.337 61.0432 359.873 61.1082 359.428 61.2062V70.3792C359.872 70.4782 360.337 70.5342 360.823 70.5342C363.905 70.5342 366.403 68.4092 366.403 65.7882C366.403 63.1702 363.905 61.0432 360.823 61.0432Z" fill="black"/>
</g>
<path d="M358.418 48.019C355.78 48.869 350.48 47.623 349.669 45.109C348.858 42.592 352.843 39.757 355.484 38.907C358.121 38.058 360.918 39.407 361.731 41.923C362.54 44.438 361.059 47.169 358.418 48.019Z" fill="#C9D551"/>
<path d="M364.812 48.1681C364.812 48.9371 364.192 49.5601 363.42 49.5601C362.653 49.5601 362.029 48.9371 362.029 48.1681C362.029 47.4001 362.652 46.7771 363.42 46.7771C364.192 46.7771 364.812 47.4001 364.812 48.1681Z" fill="#919C24"/>
<path d="M359.568 94.1641C359.568 94.1641 357.448 97.9951 355.265 98.3851L354.811 99.6561C354.811 99.6561 358.848 98.6751 359.568 94.1641Z" fill="#A16324"/>
<g opacity="0.1">
<path d="M359.567 94.1641C359.567 94.1641 358.515 97.8721 355.26 99.0401L355.531 98.2451C355.531 98.2451 357.18 98.2141 359.567 94.1641Z" fill="black"/>
</g>
<path d="M351.021 93.8831C351.021 93.8831 352.878 97.8451 355.03 98.3781L355.4 99.6781C355.4 99.6781 351.434 98.4301 351.021 93.8831Z" fill="#A16324"/>
<g opacity="0.1">
<path d="M351.021 93.8831C351.021 93.8831 351.823 97.6531 354.991 99.0331L354.772 98.2211C354.772 98.2211 353.131 98.0811 351.021 93.8831Z" fill="black"/>
</g>
<path d="M356.124 89.6922C356.065 91.3782 354.333 92.6872 352.245 92.6192C350.161 92.5502 348.517 91.1282 348.572 89.4432C348.631 87.7592 350.367 86.4502 352.451 86.5182C354.538 86.5872 356.182 88.0082 356.124 89.6922Z" fill="#B5D13C"/>
<path d="M359.021 87.7691C358.966 89.3641 357.325 90.6061 355.351 90.5411C353.378 90.4761 351.823 89.1301 351.876 87.5351C351.929 85.9411 353.573 84.7011 355.544 84.7661C357.52 84.8321 359.074 86.1771 359.021 87.7691Z" fill="#B5D13C"/>
<path d="M354.392 93.016C354.338 94.581 352.725 95.799 350.79 95.735C348.854 95.672 347.327 94.35 347.378 92.785C347.431 91.222 349.045 90.006 350.98 90.07C352.918 90.133 354.445 91.453 354.392 93.016Z" fill="#B5D13C"/>
<path d="M358.444 92.9331C358.388 94.4961 356.778 95.7141 354.842 95.6491C352.906 95.5861 351.38 94.2661 351.433 92.7021C351.486 91.1371 353.097 89.9211 355.035 89.9851C356.969 90.0481 358.497 91.3691 358.444 92.9331Z" fill="#B5D13C"/>
<path d="M362.857 90.1331C362.805 91.6981 361.194 92.9141 359.256 92.8501C357.321 92.7861 355.794 91.4661 355.847 89.9001C355.899 88.3381 357.511 87.1201 359.448 87.1851C361.384 87.2491 362.91 88.5681 362.857 90.1331Z" fill="#B5D13C"/>
<path d="M363.016 93.41C362.961 94.975 361.351 96.19 359.416 96.127C357.478 96.064 355.95 94.742 356.005 93.178C356.058 91.614 357.67 90.398 359.607 90.46C361.542 90.527 363.069 91.846 363.016 93.41Z" fill="#B5D13C"/>
<path d="M362.289 91.6042C362.631 91.1822 362.84 90.6792 362.857 90.1322C362.905 88.7502 361.735 87.5572 360.139 87.2432C360.199 87.5862 360.233 87.9382 360.221 88.2952C360.106 91.6232 356.793 94.2142 352.812 94.0852C350.711 94.0152 348.855 93.1972 347.578 91.9542C347.463 92.2222 347.393 92.5062 347.38 92.8072C347.329 94.3812 348.854 95.7102 350.792 95.7762C351.631 95.8032 352.409 95.5872 353.025 95.2072C353.549 95.4912 354.171 95.6682 354.843 95.6892C355.61 95.7142 356.33 95.5332 356.92 95.2102C357.537 95.7712 358.423 96.1372 359.413 96.1692C361.351 96.2332 362.962 95.0072 363.014 93.4342C363.039 92.7482 362.765 92.1122 362.289 91.6042Z" fill="#88931C"/>
<path d="M352.107 92.7241C352.107 92.7241 352.513 94.6721 354.715 95.3721L354.733 94.8531C354.733 94.8531 353.782 95.0421 352.107 92.7241Z" fill="#A16324"/>
<g opacity="0.1">
<path d="M352.107 92.7241C352.107 92.7241 353.081 94.8281 354.724 95.1291L354.734 94.8541C354.734 94.8541 353.654 94.9011 352.107 92.7241Z" fill="black"/>
</g>
<path d="M356.8 94.0972C356.8 94.0972 356.484 95.2272 355.164 95.5512L355.175 95.2462C355.175 95.2462 355.726 95.3922 356.8 94.0972Z" fill="#A16324"/>
<g opacity="0.1">
<path d="M356.8 94.0972C356.8 94.0972 356.149 95.2952 355.172 95.4082L355.175 95.2472C355.175 95.2472 355.807 95.3152 356.8 94.0972Z" fill="black"/>
</g>
<g opacity="0.1">
<path d="M362.32 91.623C362.664 91.204 362.872 90.705 362.889 90.162C362.944 88.598 361.418 87.278 359.479 87.213C359.32 87.209 359.159 87.216 359.004 87.226C358.723 85.895 357.309 84.851 355.58 84.794C355.522 84.793 355.467 84.8 355.411 84.8L355.043 95.677C355.751 95.674 356.405 95.5 356.954 95.203C357.573 95.76 358.456 96.124 359.447 96.156C361.386 96.22 362.995 95.002 363.049 93.439C363.074 92.759 362.796 92.128 362.32 91.623Z" fill="black"/>
</g>
<path d="M354.747 94.446C354.747 94.446 354.532 100.82 354.172 101.517L356.461 101.702C356.461 101.702 355.251 95.553 355.225 94.353L354.747 94.446Z" fill="#A16324"/>
<g opacity="0.1">
<path d="M354.979 94.412L355.266 101.6L356.462 101.703L355.226 94.354L354.979 94.412Z" fill="black"/>
</g>
<path d="M408.732 77.064H406.096V98.084H408.732V77.064Z" fill="#A16324"/>
<g opacity="0.1">
<path d="M408.732 77.3669H407.525V98.0839H408.732V77.3669Z" fill="black"/>
</g>
<path d="M416.554 69.7451C416.554 78.4691 412.283 85.5401 407.012 85.5401C401.744 85.5401 397.473 78.4681 397.473 69.7451C397.473 61.0201 401.745 42.6001 407.012 42.6001C412.282 42.6001 416.554 61.0201 416.554 69.7451Z" fill="#B4CA32"/>
<path d="M413.105 50.896C413.119 51.374 413.125 51.854 413.125 52.338C413.125 66.271 407.984 77.565 401.641 77.565C400.516 77.565 399.429 77.204 398.398 76.541C399.932 81.861 403.213 85.541 407.012 85.541C412.283 85.541 416.554 78.469 416.554 69.746C416.554 64.857 415.214 56.929 413.105 50.896Z" fill="#88931C"/>
<g opacity="0.1">
<path d="M416.646 69.785C416.646 61.101 412.335 42.896 406.982 42.467V85.686C412.336 85.52 416.646 78.468 416.646 69.785Z" fill="black"/>
</g>
<path d="M428.45 81.8238L427.17 82.5723L432.342 91.4185L433.622 90.67L428.45 81.8238Z" fill="#A16324"/>
<g opacity="0.1">
<path d="M427.786 82.1024L427.121 82.4924L432.34 91.3919L433.006 91.0018L427.786 82.1024Z" fill="black"/>
</g>
<path d="M437.623 81.4365L432.453 90.2847L433.734 91.0328L438.904 82.1847L437.623 81.4365Z" fill="#A16324"/>
<g opacity="0.1">
<path d="M438.267 81.7317L433.062 90.6394L433.728 91.0284L438.933 82.1207L438.267 81.7317Z" fill="black"/>
</g>
<path d="M433.88 81.9412H431.803V98.5012H433.88V81.9412Z" fill="#A16324"/>
<g opacity="0.1">
<path d="M433.881 82.179H432.93V98.502H433.881V82.179Z" fill="black"/>
</g>
<path d="M446.034 73.9761C446.034 79.9081 439.892 84.7171 432.317 84.7171C424.741 84.7171 418.6 79.9081 418.6 73.9761C418.6 68.0431 424.741 55.5151 432.317 55.5151C439.893 55.5151 446.034 68.0431 446.034 73.9761Z" fill="#B4CA32"/>
<path d="M441.078 61.156C441.097 61.481 441.108 61.807 441.108 62.139C441.108 71.613 433.715 79.293 424.595 79.293C422.976 79.293 421.411 79.048 419.934 78.596C422.14 82.217 426.854 84.717 432.318 84.717C439.893 84.717 446.035 79.908 446.035 73.976C446.035 70.65 444.105 65.258 441.078 61.156Z" fill="#88931C"/>
<g opacity="0.1">
<path d="M446.171 74.0021C446.171 68.0971 439.972 55.7161 432.273 55.4241V84.8171C439.972 84.7041 446.171 79.9081 446.171 74.0021Z" fill="black"/>
</g>
<path d="M401.964 52.0161C402.128 50.8501 403.585 49.0611 404.696 49.2171C405.804 49.3731 406.146 51.4191 405.982 52.5831C405.819 53.7501 404.785 54.5651 403.674 54.4091C402.563 54.2511 401.798 53.1801 401.964 52.0161Z" fill="#C9D551"/>
<path d="M402.35 61.73C403.312 61.642 404.845 60.512 404.756 59.594C404.671 58.676 403.003 58.312 402.04 58.402C401.075 58.494 400.362 59.31 400.448 60.229C400.534 61.147 401.386 61.822 402.35 61.73Z" fill="#C9D551"/>
<path d="M402.299 56.236C402.299 56.72 401.908 57.109 401.428 57.109C400.945 57.109 400.555 56.72 400.555 56.236C400.555 55.757 400.945 55.366 401.428 55.366C401.908 55.366 402.299 55.756 402.299 56.236Z" fill="#919C24"/>
<path d="M426.007 61.8541C426.173 60.6891 427.631 58.8961 428.739 59.0551C429.848 59.2131 430.189 61.2591 430.025 62.4221C429.861 63.5871 428.829 64.4041 427.717 64.2461C426.608 64.0891 425.843 63.0181 426.007 61.8541Z" fill="#C9D551"/>
<path d="M426.392 71.5691C427.355 71.4791 428.884 70.3521 428.8 69.4341C428.716 68.5131 427.045 68.1511 426.082 68.2411C425.118 68.3311 424.405 69.1481 424.491 70.0681C424.578 70.9851 425.428 71.6601 426.392 71.5691Z" fill="#C9D551"/>
<path d="M426.341 66.0741C426.341 66.5561 425.951 66.9471 425.47 66.9471C424.988 66.9471 424.598 66.5561 424.598 66.0741C424.598 65.5931 424.989 65.2041 425.47 65.2041C425.951 65.2041 426.341 65.5931 426.341 66.0741Z" fill="#919C24"/>
<path d="M399.471 92.4712C399.471 92.4712 404.63 94.5582 405.06 99.4082H406.042C406.042 99.4082 405.55 93.7592 399.471 92.4712Z" fill="#69862A"/>
<path d="M406.719 99.4082C406.719 99.4082 406.346 95.1112 401.719 94.1282C401.719 94.1282 405.645 95.7182 405.972 99.4082H406.719Z" fill="#586F22"/>
<path d="M412.314 92.4392C412.314 92.4392 407.159 94.5272 406.73 99.3772H405.748C405.748 99.3772 406.237 93.7292 412.314 92.4392Z" fill="#69862A"/>
<path d="M406.196 99.7133C406.196 99.7133 404.255 95.8603 407.67 92.5933C407.67 92.5933 405.17 96.0083 406.831 99.3193L406.196 99.7133Z" fill="#586F22"/>
<path d="M406.761 90.1921C406.761 90.1921 404.026 95.0371 406.705 99.1011L405.938 99.7131C405.938 99.7131 402.807 94.9861 406.761 90.1921Z" fill="#8CA738"/>
<path d="M424.451 92.6272C424.451 92.6272 429.606 94.7142 430.037 99.5642H431.021C431.021 99.5642 430.529 93.9152 424.451 92.6272Z" fill="#69862A"/>
<path d="M431.699 99.5642C431.699 99.5642 431.324 95.2672 426.699 94.2832C426.699 94.2832 430.625 95.8742 430.95 99.5642H431.699Z" fill="#586F22"/>
<path d="M437.296 92.5962C437.296 92.5962 432.141 94.6842 431.709 99.5342H430.727C430.727 99.5342 431.219 93.8852 437.296 92.5962Z" fill="#69862A"/>
<path d="M431.177 99.869C431.177 99.869 429.234 96.016 432.649 92.748C432.649 92.748 430.15 96.164 431.812 99.475L431.177 99.869Z" fill="#586F22"/>
<path d="M431.739 90.3481C431.739 90.3481 429.003 95.1931 431.686 99.2561L430.916 99.8691C430.916 99.8691 427.786 95.1421 431.739 90.3481Z" fill="#8CA738"/>
<path d="M223.197 85.3501C223.197 85.3501 232.239 89.0121 232.995 97.5171H234.715C234.715 97.5171 233.855 87.6121 223.197 85.3501Z" fill="#69862A"/>
<path d="M235.907 97.5169C235.907 97.5169 235.251 89.9769 227.139 88.2559C227.139 88.2559 234.022 91.0449 234.594 97.5169H235.907Z" fill="#586F22"/>
<path d="M245.723 85.2949C245.723 85.2949 236.679 88.9579 235.927 97.4649H234.203C234.203 97.4649 235.063 87.5579 245.723 85.2949Z" fill="#69862A"/>
<path d="M234.992 98.052C234.992 98.052 231.584 91.296 237.576 85.562C237.576 85.562 233.189 91.554 236.108 97.361L234.992 98.052Z" fill="#586F22"/>
<path d="M235.976 81.355C235.976 81.355 231.179 89.853 235.882 96.979L234.532 98.052C234.532 98.052 229.045 89.762 235.976 81.355Z" fill="#8CA738"/>
<path d="M361.305 87.5801C361.305 87.5801 370.347 91.2421 371.103 99.7471H372.823C372.823 99.7471 371.963 89.8421 361.305 87.5801Z" fill="#69862A"/>
<path d="M374.014 99.7468C374.014 99.7468 373.358 92.2068 365.246 90.4858C365.246 90.4858 372.129 93.2748 372.701 99.7468H374.014Z" fill="#586F22"/>
<path d="M383.829 87.5249C383.829 87.5249 374.785 91.1879 374.033 99.6949H372.309C372.309 99.6949 373.17 89.7879 383.829 87.5249Z" fill="#69862A"/>
<path d="M373.1 100.282C373.1 100.282 369.692 93.526 375.684 87.792C375.684 87.792 371.296 93.784 374.215 99.591L373.1 100.282Z" fill="#586F22"/>
<path d="M374.083 83.585C374.083 83.585 369.286 92.083 373.989 99.21L372.639 100.283C372.639 100.283 367.151 91.992 374.083 83.585Z" fill="#8CA738"/>
<path d="M124.754 86.1001C124.754 86.1001 133.796 89.7621 134.552 98.2671H136.272C136.272 98.2671 135.412 88.3621 124.754 86.1001Z" fill="#69862A"/>
<path d="M137.463 98.2669C137.463 98.2669 136.807 90.7269 128.695 89.0059C128.695 89.0059 135.578 91.7949 136.15 98.2669H137.463Z" fill="#586F22"/>
<path d="M147.278 86.0449C147.278 86.0449 138.234 89.7079 137.482 98.2149H135.758C135.758 98.2149 136.619 88.3079 147.278 86.0449Z" fill="#69862A"/>
<path d="M136.549 98.802C136.549 98.802 133.141 92.046 139.133 86.312C139.133 86.312 134.745 92.304 137.664 98.111L136.549 98.802Z" fill="#586F22"/>
<path d="M137.532 82.105C137.532 82.105 132.735 90.603 137.438 97.729L136.088 98.802C136.088 98.802 130.601 90.512 137.532 82.105Z" fill="#8CA738"/>
<path d="M108.617 98.646H18.7012V111.15H108.617V98.646Z" fill="#DADCE5"/>
<path d="M108.617 114.32H18.7012V126.82H108.617V114.32Z" fill="#DADCE5"/>
<path d="M108.617 129.99H18.7012V142.494H108.617V129.99Z" fill="#DADCE5"/>
<path d="M164.932 127.464H163.092V134.328H164.932V127.464Z" fill="#B26E60"/>
<path d="M172.707 127.464L180.167 127.554L180.127 134.903L172.789 134.9L172.707 127.464Z" fill="#FCC491"/>
<path d="M172.79 134.9L167.01 134.813L167.141 127.584L172.79 127.464V134.9Z" fill="#FCC491"/>
<path d="M172.789 134.9L170.949 134.857L170.826 127.522L172.789 127.464V134.9Z" fill="#B26E60"/>
<path d="M164.854 127.428L172.461 127.478V134.873L164.94 134.864L164.854 127.428Z" fill="#FCC491"/>
<path d="M164.941 134.864H159.25L159.29 127.548L164.941 127.428V134.864Z" fill="#CB8371"/>
<path d="M169.73 128.608L167.274 128.582L167.264 127.437L169.73 127.464V128.608Z" fill="#EAB488"/>
<path d="M177.87 128.671L175.414 128.644L175.402 127.501L177.87 127.526V128.671Z" fill="#EAB488"/>
<path d="M159.23 134.654H164.955L164.94 127.428L159.23 134.654Z" fill="#B26E60"/>
<path d="M169.324 120.448H167.535V127.122H169.324V120.448Z" fill="#B26E60"/>
<path d="M169.25 120.413L176.645 120.461V127.652L169.332 127.643L169.25 120.413Z" fill="#FCC491"/>
<path d="M169.333 127.643H163.799L163.84 120.529L169.333 120.413V127.643Z" fill="#CB8371"/>
<path d="M173.991 121.56L171.602 121.534L171.592 120.421L173.991 120.448V121.56Z" fill="#EAB488"/>
<path d="M163.781 127.439H169.348L169.332 120.413L163.781 127.439Z" fill="#B26E60"/>
<path d="M115.621 92.7209H6.21484V155.905H115.621V92.7209Z" fill="#08596C"/>
<path d="M213.593 155.905H115.621V92.721L165.32 67.415L213.593 92.721V155.905Z" fill="#03BCE8"/>
<path d="M6.21484 92.721L55.2008 67.577L165.32 67.415L115.621 92.721H6.21484Z" fill="#8498AF"/>
<path opacity="0.1" d="M115.625 94.655H6.21484V99.733H115.625V94.655Z" fill="black"/>
<path d="M115.625 92.7209H6.21484V97.799H115.625V92.7209Z" fill="#4E5D72"/>
<path d="M55.2008 67.5771H83.0898L40.3608 92.9241L6.21484 92.8851L55.2008 67.5771Z" fill="#5D6D89"/>
<path d="M110.262 67.5771H137.615L92.3854 93.2061H64.3184L110.262 67.5771Z" fill="#5D6D89"/>
<path d="M8.62984 80.6321H6.21484V92.8011H8.62984V80.6321Z" fill="#DADCE5"/>
<path d="M8.52059 81.0352H7.30859V92.6412H8.52059V81.0352Z" fill="#B7BAC4"/>
<path d="M16.1385 80.6321H13.7285V92.8011H16.1385V80.6321Z" fill="#DADCE5"/>
<path d="M16.0294 81.0352H14.8164V92.6412H16.0294V81.0352Z" fill="#B7BAC4"/>
<path d="M24.7196 80.6321H22.3086V92.8011H24.7196V80.6321Z" fill="#DADCE5"/>
<path d="M24.6135 81.0352H23.3965V92.6412H24.6135V81.0352Z" fill="#B7BAC4"/>
<path d="M33.2997 80.6321H30.8867V92.8011H33.2997V80.6321Z" fill="#DADCE5"/>
<path d="M33.1925 81.0352H31.9785V92.6412H33.1925V81.0352Z" fill="#B7BAC4"/>
<path d="M40.8085 80.6321H38.3965V92.8011H40.8085V80.6321Z" fill="#DADCE5"/>
<path d="M40.7032 81.0352H39.4902V92.6412H40.7032V81.0352Z" fill="#B7BAC4"/>
<path d="M49.3916 80.6321H46.9746V92.8011H49.3916V80.6321Z" fill="#DADCE5"/>
<path d="M49.2823 81.0352H48.0703V92.6412H49.2823V81.0352Z" fill="#B7BAC4"/>
<path d="M57.9716 80.6321H55.5586V92.8011H57.9716V80.6321Z" fill="#DADCE5"/>
<path d="M57.8604 81.0352H56.6504V92.6412H57.8604V81.0352Z" fill="#B7BAC4"/>
<path d="M66.5506 80.6321H64.1406V92.8011H66.5506V80.6321Z" fill="#DADCE5"/>
<path d="M66.4435 81.0352H65.2305V92.6412H66.4435V81.0352Z" fill="#B7BAC4"/>
<path d="M75.1317 80.6321H72.7227V92.8011H75.1317V80.6321Z" fill="#DADCE5"/>
<path d="M75.0245 81.0352H73.8145V92.6412H75.0245V81.0352Z" fill="#B7BAC4"/>
<path d="M83.7148 80.6321H81.3008V92.8011H83.7148V80.6321Z" fill="#DADCE5"/>
<path d="M83.6035 81.0352H82.3945V92.6412H83.6035V81.0352Z" fill="#B7BAC4"/>
<path d="M92.2968 80.6321H89.8828V92.8011H92.2968V80.6321Z" fill="#DADCE5"/>
<path d="M92.1866 81.0352H90.9746V92.6412H92.1866V81.0352Z" fill="#B7BAC4"/>
<path d="M100.874 80.6321H98.4609V92.8011H100.874V80.6321Z" fill="#DADCE5"/>
<path d="M100.766 81.0352H99.5566V92.6412H100.766V81.0352Z" fill="#B7BAC4"/>
<path d="M108.385 80.6321H105.973V92.8011H108.385V80.6321Z" fill="#DADCE5"/>
<path d="M108.273 81.0352H107.064V92.6412H108.273V81.0352Z" fill="#B7BAC4"/>
<path d="M115.593 80.7842H113.178V92.7112H115.593V80.7842Z" fill="#DADCE5"/>
<path d="M115.479 81.178H114.273V92.554H115.479V81.178Z" fill="#B7BAC4"/>
<path d="M115.621 90.3052H6.21484V92.8392H115.621V90.3052Z" fill="#DADCE5"/>
<path d="M115.621 91.697H6.21484V92.885H115.621V91.697Z" fill="#B7BAC4"/>
<path d="M115.621 80.6321H6.21484V83.0491H115.621V80.6321Z" fill="#DADCE5"/>
<path d="M115.621 81.959H6.21484V83.093H115.621V81.959Z" fill="#B7BAC4"/>
<path d="M125.429 155.905H124.643L124.598 88.668L125.384 88.522L125.429 155.905Z" fill="#0F8EA3"/>
<path d="M135.082 155.905H134.295L134.25 84.975L135.035 84.823L135.082 155.905Z" fill="#0F8EA3"/>
<path d="M143.663 155.905H142.875L142.832 82.4022L143.616 82.2432L143.663 155.905Z" fill="#0F8EA3"/>
<path d="M152.244 155.905H151.459L151.414 76.7901L152.199 76.6211L152.244 155.905Z" fill="#0F8EA3"/>
<path d="M161.897 155.905H161.111L161.066 73.3961L161.851 73.2161L161.897 155.905Z" fill="#0F8EA3"/>
<path d="M170.478 155.905H169.69L169.646 73.7351L170.433 73.5591L170.478 155.905Z" fill="#0F8EA3"/>
<path d="M179.06 155.905H178.272L178.23 76.7721L179.014 76.6021L179.06 155.905Z" fill="#0F8EA3"/>
<path d="M187.641 155.905H186.854L186.811 80.954L187.595 80.793L187.641 155.905Z" fill="#0F8EA3"/>
<path d="M196.223 155.905H195.436L195.393 88.668L196.177 88.522L196.223 155.905Z" fill="#0F8EA3"/>
<path d="M205.877 155.905H205.087L205.041 88.668L205.829 88.522L205.877 155.905Z" fill="#0F8EA3"/>
<path opacity="0.1" d="M115.621 94.6551L115.626 99.7331L165.326 75.1531L213.502 100.055L213.593 94.6551L165.32 69.3511L115.621 94.6551Z" fill="black"/>
<path d="M115.621 92.721L115.626 97.798L165.326 73.216L213.502 98.121L213.593 92.721L165.32 67.415L115.621 92.721Z" fill="#5D6D89"/>
<path d="M115.578 95.341L165.319 70.438L213.456 95.461L213.592 92.721L165.319 67.415L115.62 92.885L115.578 95.341Z" fill="#718299"/>
<path d="M207.733 108.575H121.834V155.513H207.733V108.575Z" fill="#0F8EA3"/>
<path d="M202.852 112.388H126.064V155.807H202.852V112.388Z" fill="#8498AF"/>
<path d="M197.973 117.082H130.617V154.047H197.973V117.082Z" fill="#F2F4F4"/>
<path d="M100.686 107.393H12.5273V118.308H100.686V107.393Z" fill="white"/>
<path d="M98.9755 108.884H13.7715V117.047H98.9755V108.884Z" fill="#03BCE8"/>
<path d="M13.7715 117.048L98.9755 108.884H13.7715V117.048Z" fill="#08A3BC"/>
<path d="M100.686 123.066H12.5273V133.983H100.686V123.066Z" fill="white"/>
<path d="M98.9755 124.557H13.7715V132.72H98.9755V124.557Z" fill="#03BCE8"/>
<path d="M13.7715 132.72L98.9755 124.557H13.7715V132.72Z" fill="#08A3BC"/>
<path d="M100.686 138.742H12.5273V149.655H100.686V138.742Z" fill="white"/>
<path d="M98.9755 140.231H13.7715V148.395H98.9755V140.231Z" fill="#03BCE8"/>
<path d="M13.7715 148.394L98.9755 140.231H13.7715V148.394Z" fill="#08A3BC"/>
<path d="M137.385 147.709H135.545V154.573H137.385V147.709Z" fill="#B26E60"/>
<path d="M145.162 147.709L152.621 147.799L152.582 155.148L145.244 155.145L145.162 147.709Z" fill="#FCC491"/>
<path d="M145.244 155.145L139.463 155.058L139.594 147.829L145.244 147.709V155.145Z" fill="#FCC491"/>
<path d="M145.244 155.145L143.404 155.103L143.281 147.768L145.244 147.709V155.145Z" fill="#B26E60"/>
<path d="M137.309 147.673L144.916 147.724V155.119L137.395 155.109L137.309 147.673Z" fill="#FCC491"/>
<path d="M137.396 155.109H131.705L131.745 147.793L137.396 147.673V155.109Z" fill="#CB8371"/>
<path d="M142.185 148.853L139.73 148.827L139.719 147.683L142.185 147.709V148.853Z" fill="#EAB488"/>
<path d="M150.325 148.916L147.869 148.889L147.857 147.746L150.325 147.772V148.916Z" fill="#EAB488"/>
<path d="M131.686 154.9H137.411L137.396 147.673L131.686 154.9Z" fill="#B26E60"/>
<path d="M141.778 140.693H139.99V147.367H141.778V140.693Z" fill="#B26E60"/>
<path d="M141.707 140.658L149.103 140.707V147.897L141.789 147.888L141.707 140.658Z" fill="#FCC491"/>
<path d="M141.789 147.888H136.256L136.295 140.774L141.789 140.658V147.888Z" fill="#CB8371"/>
<path d="M146.444 141.805L144.057 141.78L144.047 140.667L146.444 140.693V141.805Z" fill="#EAB488"/>
<path d="M136.236 147.685H141.803L141.788 140.658L136.236 147.685Z" fill="#B26E60"/>
<path d="M177.533 147.023H175.693V153.887H177.533V147.023Z" fill="#B26E60"/>
<path d="M185.311 147.023L192.771 147.112L192.731 154.461L185.393 154.459L185.311 147.023Z" fill="#FCC491"/>
<path d="M185.393 154.459L179.613 154.372L179.743 147.142L185.393 147.023V154.459Z" fill="#FCC491"/>
<path d="M185.393 154.459L183.554 154.416L183.43 147.082L185.393 147.023V154.459Z" fill="#B26E60"/>
<path d="M177.457 146.987L185.064 147.038V154.433L177.543 154.423L177.457 146.987Z" fill="#FCC491"/>
<path d="M177.545 154.423H171.854L171.895 147.106L177.545 146.987V154.423Z" fill="#CB8371"/>
<path d="M182.332 148.166L179.877 148.141L179.867 146.996L182.332 147.023V148.166Z" fill="#EAB488"/>
<path d="M190.474 148.23L188.018 148.203L188.006 147.06L190.474 147.086V148.23Z" fill="#EAB488"/>
<path d="M171.834 154.213H177.559L177.544 146.987L171.834 154.213Z" fill="#B26E60"/>
<path d="M181.927 140.006H180.139V146.68H181.927V140.006Z" fill="#B26E60"/>
<path d="M181.855 139.972L189.25 140.021V147.211L181.937 147.202L181.855 139.972Z" fill="#FCC491"/>
<path d="M181.938 147.202H176.404L176.444 140.088L181.938 139.972V147.202Z" fill="#CB8371"/>
<path d="M186.594 141.118L184.207 141.093L184.197 139.981L186.594 140.006V141.118Z" fill="#EAB488"/>
<path d="M176.385 146.998H181.952L181.938 139.972L176.385 146.998Z" fill="#B26E60"/>
<path d="M154.371 148.157L159.752 148.238L159.727 154.654L154.437 154.758L154.371 148.157Z" fill="#EAB488"/>
<path d="M154.437 154.758H150.328L150.358 148.262L154.437 148.157V154.758Z" fill="#CB8371"/>
<path d="M154.437 148.157L150.35 154.317L150.358 148.262L154.437 148.157Z" fill="#B26E60"/>
<path d="M164.652 148.102L170.03 148.186L170.004 154.562L164.711 154.662L164.652 148.102Z" fill="#FCC491"/>
<path d="M164.711 154.662H160.605L160.637 148.212L164.711 148.102V154.662Z" fill="#CB8371"/>
<path d="M164.705 148.132H163.379V154.662H164.705V148.132Z" fill="#B26E60"/>
<path d="M159.033 148.029L164.417 148.11L164.389 154.653L159.097 154.758L159.033 148.029Z" fill="#FCC491"/>
<path d="M159.096 154.758H154.986L155.019 148.138L159.096 148.029V154.758Z" fill="#CB8371"/>
<path d="M159.097 148.082L155.01 154.305L155.02 148.19L159.097 148.082Z" fill="#B26E60"/>
<path d="M154.381 141.621L159.716 141.702L159.682 148.119L154.438 148.222L154.381 141.621Z" fill="#EAB488"/>
<path d="M154.436 148.222H150.367L150.396 141.728L154.436 141.621V148.222Z" fill="#CB8371"/>
<path d="M154.437 141.621L150.391 147.778L150.397 141.728L154.437 141.621Z" fill="#B26E60"/>
<path d="M164.609 141.57L169.992 141.65L169.962 148.024L164.669 148.125L164.609 141.57Z" fill="#FCC491"/>
<path d="M164.668 148.125H160.564L160.593 141.675L164.668 141.57V148.125Z" fill="#CB8371"/>
<path d="M164.663 141.598H163.336V148.128H164.663V141.598Z" fill="#B26E60"/>
<path d="M158.992 141.493L164.375 141.571L164.34 148.116L159.049 148.222L158.992 141.493Z" fill="#FCC491"/>
<path d="M159.048 148.222H154.943L154.976 141.603L159.048 141.493V148.222Z" fill="#CB8371"/>
<path d="M159.05 141.493L154.969 147.769L154.978 141.603L159.05 141.493Z" fill="#B26E60"/>
<path d="M170.001 148.029H159.031V148.329H170.001V148.029Z" fill="#995E55"/>
<path d="M159.085 148.008H150.361V148.329H159.085V148.008Z" fill="#995E55"/>
<path d="M162.669 149.65L160.42 149.659L160.387 148.343L162.643 148.332L162.669 149.65Z" fill="#EAB488"/>
<path d="M168.578 149.65L166.33 149.639L166.311 148.319L168.574 148.334L168.578 149.65Z" fill="#EAB488"/>
<path d="M162.696 142.854L160.446 142.864L160.41 141.546L162.675 141.539L162.696 142.854Z" fill="#EAB488"/>
<path d="M168.552 142.942L166.3 142.924L166.279 141.609L168.543 141.622L168.552 142.942Z" fill="#EAB488"/>
<path d="M199.634 116.707H129.676V136.216H199.634V116.707Z" fill="#DADCE5"/>
<path d="M199.794 116.707H129.676V118.469H199.794V116.707Z" fill="#B7BAC4"/>
<path d="M199.794 120.228H129.676V121.989H199.794V120.228Z" fill="#B7BAC4"/>
<path d="M199.794 123.75H129.676V125.509H199.794V123.75Z" fill="#B7BAC4"/>
<path d="M199.794 127.269H129.676V129.029H199.794V127.269Z" fill="#B7BAC4"/>
<path d="M199.794 130.79H129.676V132.55H199.794V130.79Z" fill="#B7BAC4"/>
<path d="M199.794 135.483H129.676V137.245H199.794V135.483Z" fill="#B7BAC4"/>
<path d="M220.591 154.048H122.326V155.905H220.591V154.048Z" fill="#718299"/>
<g opacity="0.7">
<path d="M229.57 6.581C228.838 6.581 228.125 6.659 227.443 6.803C225.543 2.816 220.954 0 215.589 0C211.212 0 207.336 1.882 205.036 4.751C204.325 4.612 203.574 4.531 202.813 4.531C197.223 4.531 192.691 8.391 192.691 13.142C192.691 17.164 195.922 20.528 200.294 21.48V21.758H229.569C234.501 21.758 238.499 18.36 238.499 14.169C238.5 9.975 234.502 6.581 229.57 6.581Z" fill="white"/>
</g>
<g opacity="0.7">
<path d="M303.537 24.066C303.018 24.066 302.509 24.125 302.018 24.229C300.665 21.383 297.399 19.373 293.568 19.373C290.441 19.373 287.675 20.718 286.033 22.761C285.529 22.665 284.99 22.609 284.45 22.609C280.463 22.609 277.227 25.36 277.227 28.748C277.227 31.618 279.532 34.014 282.649 34.694V34.896H303.537C307.055 34.896 309.906 32.472 309.906 29.483C309.906 26.486 307.055 24.066 303.537 24.066Z" fill="white"/>
</g>
<path d="M332.865 89.5171C332.865 89.5171 341.907 93.1791 342.663 101.684H344.383C344.383 101.684 343.523 91.7791 332.865 89.5171Z" fill="#69862A"/>
<path d="M345.575 101.684C345.575 101.684 344.919 94.1439 336.807 92.4229C336.807 92.4229 343.69 95.2119 344.262 101.684H345.575Z" fill="#586F22"/>
<path d="M355.391 89.4619C355.391 89.4619 346.347 93.1249 345.595 101.632H343.871C343.871 101.632 344.731 91.7249 355.391 89.4619Z" fill="#69862A"/>
<path d="M344.66 102.219C344.66 102.219 341.252 95.463 347.244 89.729C347.244 89.729 342.856 95.721 345.775 101.528L344.66 102.219Z" fill="#586F22"/>
<path d="M345.644 85.522C345.644 85.522 340.847 94.02 345.55 101.146L344.2 102.219C344.2 102.219 338.712 93.929 345.644 85.522Z" fill="#8CA738"/>
<path d="M346.754 87.6001C346.754 87.6001 355.796 91.2621 356.552 99.7671H358.272C358.272 99.7671 357.412 89.8621 346.754 87.6001Z" fill="#69862A"/>
<path d="M359.463 99.7669C359.463 99.7669 358.807 92.2269 350.695 90.5059C350.695 90.5059 357.578 93.2949 358.15 99.7669H359.463Z" fill="#586F22"/>
<path d="M369.278 87.5449C369.278 87.5449 360.234 91.2079 359.482 99.7149H357.758C357.758 99.7149 358.619 89.8079 369.278 87.5449Z" fill="#69862A"/>
<path d="M358.549 100.302C358.549 100.302 355.141 93.546 361.133 87.812C361.133 87.812 356.745 93.804 359.664 99.611L358.549 100.302Z" fill="#586F22"/>
<path d="M359.532 83.605C359.532 83.605 354.735 92.103 359.438 99.229L358.088 100.302C358.088 100.302 352.601 92.012 359.532 83.605Z" fill="#8CA738"/>
<path d="M330.617 100.146H240.701V112.65H330.617V100.146Z" fill="#DADCE5"/>
<path d="M330.617 115.82H240.701V128.32H330.617V115.82Z" fill="#DADCE5"/>
<path d="M330.617 131.49H240.701V143.994H330.617V131.49Z" fill="#DADCE5"/>
<path d="M386.932 128.964H385.092V135.828H386.932V128.964Z" fill="#B26E60"/>
<path d="M394.709 128.964L402.168 129.054L402.129 136.403L394.791 136.4L394.709 128.964Z" fill="#FCC491"/>
<path d="M394.791 136.4L389.01 136.313L389.141 129.084L394.791 128.964V136.4Z" fill="#FCC491"/>
<path d="M394.79 136.4L392.948 136.357L392.826 129.022L394.79 128.964V136.4Z" fill="#B26E60"/>
<path d="M386.854 128.928L394.463 128.978V136.373L386.941 136.364L386.854 128.928Z" fill="#FCC491"/>
<path d="M386.941 136.364H381.25L381.291 129.048L386.941 128.928V136.364Z" fill="#CB8371"/>
<path d="M391.73 130.108L389.275 130.082L389.266 128.937L391.73 128.964V130.108Z" fill="#EAB488"/>
<path d="M399.87 130.171L397.414 130.144L397.402 129.001L399.87 129.026V130.171Z" fill="#EAB488"/>
<path d="M381.23 136.154H386.955L386.94 128.928L381.23 136.154Z" fill="#B26E60"/>
<path d="M391.324 121.948H389.535V128.622H391.324V121.948Z" fill="#B26E60"/>
<path d="M391.25 121.913L398.646 121.961V129.152L391.334 129.143L391.25 121.913Z" fill="#FCC491"/>
<path d="M391.334 129.143H385.799L385.84 122.029L391.334 121.913V129.143Z" fill="#CB8371"/>
<path d="M395.99 123.06L393.602 123.034L393.592 121.921L395.99 121.948V123.06Z" fill="#EAB488"/>
<path d="M385.781 128.939H391.349L391.334 121.913L385.781 128.939Z" fill="#B26E60"/>
<path d="M337.62 94.2209H228.215V157.405H337.62V94.2209Z" fill="#08596C"/>
<path d="M435.591 157.405H337.619V94.221L387.318 68.915L435.591 94.221V157.405Z" fill="#03BCE8"/>
<path d="M228.215 94.221L277.199 69.077L387.319 68.915L337.62 94.221H228.215Z" fill="#8498AF"/>
<path opacity="0.1" d="M337.625 96.155H228.215V101.233H337.625V96.155Z" fill="black"/>
<path d="M337.625 94.2209H228.215V99.299H337.625V94.2209Z" fill="#4E5D72"/>
<path d="M277.199 69.0771H305.09L262.36 94.4241L228.215 94.3851L277.199 69.0771Z" fill="#5D6D89"/>
<path d="M332.26 69.0771H359.613L314.383 94.7061H286.316L332.26 69.0771Z" fill="#5D6D89"/>
<path d="M230.629 82.1321H228.215V94.3011H230.629V82.1321Z" fill="#DADCE5"/>
<path d="M230.52 82.5352H229.307V94.1412H230.52V82.5352Z" fill="#B7BAC4"/>
<path d="M238.137 82.1321H235.727V94.3011H238.137V82.1321Z" fill="#DADCE5"/>
<path d="M238.029 82.5352H236.816V94.1412H238.029V82.5352Z" fill="#B7BAC4"/>
<path d="M246.72 82.1321H244.309V94.3011H246.72V82.1321Z" fill="#DADCE5"/>
<path d="M246.613 82.5352H245.396V94.1412H246.613V82.5352Z" fill="#B7BAC4"/>
<path d="M255.299 82.1321H252.887V94.3011H255.299V82.1321Z" fill="#DADCE5"/>
<path d="M255.193 82.5352H253.979V94.1412H255.193V82.5352Z" fill="#B7BAC4"/>
<path d="M262.807 82.1321H260.395V94.3011H262.807V82.1321Z" fill="#DADCE5"/>
<path d="M262.701 82.5352H261.488V94.1412H262.701V82.5352Z" fill="#B7BAC4"/>
<path d="M271.392 82.1321H268.975V94.3011H271.392V82.1321Z" fill="#DADCE5"/>
<path d="M271.282 82.5352H270.07V94.1412H271.282V82.5352Z" fill="#B7BAC4"/>
<path d="M279.97 82.1321H277.557V94.3011H279.97V82.1321Z" fill="#DADCE5"/>
<path d="M279.859 82.5352H278.648V94.1412H279.859V82.5352Z" fill="#B7BAC4"/>
<path d="M288.549 82.1321H286.139V94.3011H288.549V82.1321Z" fill="#DADCE5"/>
<path d="M288.443 82.5352H287.23V94.1412H288.443V82.5352Z" fill="#B7BAC4"/>
<path d="M297.131 82.1321H294.723V94.3011H297.131V82.1321Z" fill="#DADCE5"/>
<path d="M297.023 82.5352H295.812V94.1412H297.023V82.5352Z" fill="#B7BAC4"/>
<path d="M305.713 82.1321H303.299V94.3011H305.713V82.1321Z" fill="#DADCE5"/>
<path d="M305.604 82.5352H304.395V94.1412H305.604V82.5352Z" fill="#B7BAC4"/>
<path d="M314.295 82.1321H311.881V94.3011H314.295V82.1321Z" fill="#DADCE5"/>
<path d="M314.186 82.5352H312.975V94.1412H314.186V82.5352Z" fill="#B7BAC4"/>
<path d="M322.874 82.1321H320.461V94.3011H322.874V82.1321Z" fill="#DADCE5"/>
<path d="M322.766 82.5352H321.557V94.1412H322.766V82.5352Z" fill="#B7BAC4"/>
<path d="M330.385 82.1321H327.973V94.3011H330.385V82.1321Z" fill="#DADCE5"/>
<path d="M330.272 82.5352H329.062V94.1412H330.272V82.5352Z" fill="#B7BAC4"/>
<path d="M337.592 82.2842H335.178V94.2112H337.592V82.2842Z" fill="#DADCE5"/>
<path d="M337.478 82.678H336.271V94.054H337.478V82.678Z" fill="#B7BAC4"/>
<path d="M337.62 91.8052H228.215V94.3392H337.62V91.8052Z" fill="#DADCE5"/>
<path d="M337.62 93.197H228.215V94.385H337.62V93.197Z" fill="#B7BAC4"/>
<path d="M337.62 82.1321H228.215V84.5491H337.62V82.1321Z" fill="#DADCE5"/>
<path d="M337.62 83.459H228.215V84.593H337.62V83.459Z" fill="#B7BAC4"/>
<path d="M347.428 157.405H346.641L346.596 90.168L347.382 90.022L347.428 157.405Z" fill="#0F8EA3"/>
<path d="M357.081 157.405H356.294L356.25 86.475L357.033 86.323L357.081 157.405Z" fill="#0F8EA3"/>
<path d="M365.662 157.405H364.874L364.83 83.9022L365.615 83.7432L365.662 157.405Z" fill="#0F8EA3"/>
<path d="M374.242 157.405H373.456L373.412 78.2901L374.196 78.1211L374.242 157.405Z" fill="#0F8EA3"/>
<path d="M383.896 157.405H383.11L383.064 74.8961L383.85 74.7161L383.896 157.405Z" fill="#0F8EA3"/>
<path d="M392.478 157.405H391.69L391.646 75.2351L392.434 75.0591L392.478 157.405Z" fill="#0F8EA3"/>
<path d="M401.06 157.405H400.272L400.229 78.2721L401.014 78.1021L401.06 157.405Z" fill="#0F8EA3"/>
<path d="M409.642 157.405H408.854L408.811 82.454L409.595 82.293L409.642 157.405Z" fill="#0F8EA3"/>
<path d="M418.221 157.405H417.435L417.391 90.168L418.176 90.022L418.221 157.405Z" fill="#0F8EA3"/>
<path d="M427.877 157.405H427.088L427.041 90.168L427.829 90.022L427.877 157.405Z" fill="#0F8EA3"/>
<path opacity="0.1" d="M337.619 96.1551L337.624 101.233L387.324 76.6531L435.501 101.555L435.591 96.1551L387.318 70.8511L337.619 96.1551Z" fill="black"/>
<path d="M337.619 94.221L337.624 99.298L387.324 74.716L435.501 99.621L435.591 94.221L387.318 68.915L337.619 94.221Z" fill="#5D6D89"/>
<path d="M337.578 96.841L387.319 71.938L435.456 96.961L435.592 94.221L387.319 68.915L337.62 94.385L337.578 96.841Z" fill="#718299"/>
<path d="M429.734 110.075H343.834V157.013H429.734V110.075Z" fill="#0F8EA3"/>
<path d="M424.852 113.888H348.064V157.307H424.852V113.888Z" fill="#8498AF"/>
<path d="M419.973 118.582H352.617V155.547H419.973V118.582Z" fill="#F2F4F4"/>
<path d="M322.686 108.893H234.527V119.808H322.686V108.893Z" fill="white"/>
<path d="M320.974 110.384H235.771V118.547H320.974V110.384Z" fill="#03BCE8"/>
<path d="M235.771 118.548L320.975 110.384H235.771V118.548Z" fill="#08A3BC"/>
<path d="M322.686 124.566H234.527V135.483H322.686V124.566Z" fill="white"/>
<path d="M320.974 126.057H235.771V134.22H320.974V126.057Z" fill="#03BCE8"/>
<path d="M235.771 134.22L320.975 126.057H235.771V134.22Z" fill="#08A3BC"/>
<path d="M322.686 140.242H234.527V151.155H322.686V140.242Z" fill="white"/>
<path d="M320.974 141.731H235.771V149.895H320.974V141.731Z" fill="#03BCE8"/>
<path d="M235.771 149.894L320.975 141.731H235.771V149.894Z" fill="#08A3BC"/>
<path d="M359.386 149.209H357.545V156.073H359.386V149.209Z" fill="#B26E60"/>
<path d="M367.162 149.209L374.623 149.299L374.583 156.648L367.244 156.645L367.162 149.209Z" fill="#FCC491"/>
<path d="M367.244 156.645L361.465 156.558L361.595 149.329L367.244 149.209V156.645Z" fill="#FCC491"/>
<path d="M367.244 156.645L365.405 156.603L365.281 149.268L367.244 149.209V156.645Z" fill="#B26E60"/>
<path d="M359.311 149.173L366.918 149.224V156.619L359.397 156.609L359.311 149.173Z" fill="#FCC491"/>
<path d="M359.396 156.609H353.705L353.745 149.293L359.396 149.173V156.609Z" fill="#CB8371"/>
<path d="M364.185 150.353L361.729 150.327L361.719 149.183L364.185 149.209V150.353Z" fill="#EAB488"/>
<path d="M372.324 150.416L369.869 150.389L369.857 149.246L372.324 149.272V150.416Z" fill="#EAB488"/>
<path d="M353.686 156.4H359.411L359.397 149.173L353.686 156.4Z" fill="#B26E60"/>
<path d="M363.778 142.193H361.99V148.867H363.778V142.193Z" fill="#B26E60"/>
<path d="M363.707 142.158L371.103 142.207V149.397L363.789 149.388L363.707 142.158Z" fill="#FCC491"/>
<path d="M363.789 149.388H358.256L358.296 142.274L363.789 142.158V149.388Z" fill="#CB8371"/>
<path d="M368.444 143.305L366.057 143.28L366.047 142.167L368.444 142.193V143.305Z" fill="#EAB488"/>
<path d="M358.236 149.185H363.803L363.788 142.158L358.236 149.185Z" fill="#B26E60"/>
<path d="M399.534 148.523H397.693V155.387H399.534V148.523Z" fill="#B26E60"/>
<path d="M407.311 148.523L414.772 148.612L414.732 155.961L407.393 155.959L407.311 148.523Z" fill="#FCC491"/>
<path d="M407.392 155.959L401.613 155.872L401.743 148.642L407.392 148.523V155.959Z" fill="#FCC491"/>
<path d="M407.392 155.959L405.554 155.916L405.43 148.582L407.392 148.523V155.959Z" fill="#B26E60"/>
<path d="M399.459 148.487L407.065 148.538V155.933L399.545 155.923L399.459 148.487Z" fill="#FCC491"/>
<path d="M399.546 155.923H393.854L393.894 148.606L399.546 148.487V155.923Z" fill="#CB8371"/>
<path d="M404.334 149.666L401.878 149.641L401.867 148.496L404.334 148.523V149.666Z" fill="#EAB488"/>
<path d="M412.473 149.73L410.017 149.703L410.006 148.56L412.473 148.586V149.73Z" fill="#EAB488"/>
<path d="M393.834 155.713H399.559L399.545 148.487L393.834 155.713Z" fill="#B26E60"/>
<path d="M403.927 141.506H402.139V148.18H403.927V141.506Z" fill="#B26E60"/>
<path d="M403.854 141.472L411.25 141.521V148.711L403.936 148.702L403.854 141.472Z" fill="#FCC491"/>
<path d="M403.935 148.702H398.402L398.442 141.588L403.935 141.472V148.702Z" fill="#CB8371"/>
<path d="M408.593 142.618L406.205 142.593L406.195 141.481L408.593 141.506V142.618Z" fill="#EAB488"/>
<path d="M398.385 148.498H403.951L403.936 141.472L398.385 148.498Z" fill="#B26E60"/>
<path d="M376.373 149.657L381.755 149.738L381.729 156.154L376.439 156.258L376.373 149.657Z" fill="#EAB488"/>
<path d="M376.438 156.258H372.328L372.359 149.762L376.438 149.657V156.258Z" fill="#CB8371"/>
<path d="M376.438 149.657L372.352 155.817L372.359 149.762L376.438 149.657Z" fill="#B26E60"/>
<path d="M386.654 149.602L392.032 149.686L392.006 156.062L386.714 156.162L386.654 149.602Z" fill="#FCC491"/>
<path d="M386.713 156.162H382.605L382.639 149.712L386.713 149.602V156.162Z" fill="#CB8371"/>
<path d="M386.705 149.632H385.379V156.162H386.705V149.632Z" fill="#B26E60"/>
<path d="M381.033 149.529L386.417 149.61L386.389 156.153L381.098 156.258L381.033 149.529Z" fill="#FCC491"/>
<path d="M381.097 156.258H376.986L377.019 149.638L381.097 149.529V156.258Z" fill="#CB8371"/>
<path d="M381.098 149.582L377.01 155.805L377.02 149.69L381.098 149.582Z" fill="#B26E60"/>
<path d="M376.381 143.121L381.716 143.202L381.682 149.619L376.438 149.722L376.381 143.121Z" fill="#EAB488"/>
<path d="M376.438 149.722H372.369L372.398 143.228L376.438 143.121V149.722Z" fill="#CB8371"/>
<path d="M376.439 143.121L372.393 149.278L372.399 143.228L376.439 143.121Z" fill="#B26E60"/>
<path d="M386.609 143.07L391.992 143.15L391.963 149.524L386.669 149.625L386.609 143.07Z" fill="#FCC491"/>
<path d="M386.668 149.625H382.564L382.593 143.175L386.668 143.07V149.625Z" fill="#CB8371"/>
<path d="M386.663 143.098H385.336V149.628H386.663V143.098Z" fill="#B26E60"/>
<path d="M380.992 142.993L386.377 143.071L386.341 149.616L381.05 149.722L380.992 142.993Z" fill="#FCC491"/>
<path d="M381.05 149.722H376.945L376.978 143.103L381.05 142.993V149.722Z" fill="#CB8371"/>
<path d="M381.05 142.993L376.969 149.269L376.978 143.103L381.05 142.993Z" fill="#B26E60"/>
<path d="M392.003 149.529H381.033V149.829H392.003V149.529Z" fill="#995E55"/>
<path d="M381.088 149.508H372.363V149.829H381.088V149.508Z" fill="#995E55"/>
<path d="M384.671 151.15L382.422 151.159L382.389 149.843L384.646 149.832L384.671 151.15Z" fill="#EAB488"/>
<path d="M390.579 151.15L388.329 151.139L388.312 149.819L390.575 149.834L390.579 151.15Z" fill="#EAB488"/>
<path d="M384.696 144.354L382.446 144.364L382.41 143.046L384.675 143.039L384.696 144.354Z" fill="#EAB488"/>
<path d="M390.554 144.442L388.303 144.424L388.281 143.109L390.545 143.122L390.554 144.442Z" fill="#EAB488"/>
<path d="M421.633 118.207H351.676V137.716H421.633V118.207Z" fill="#DADCE5"/>
<path d="M421.793 118.207H351.676V119.969H421.793V118.207Z" fill="#B7BAC4"/>
<path d="M421.793 121.728H351.676V123.489H421.793V121.728Z" fill="#B7BAC4"/>
<path d="M421.793 125.25H351.676V127.009H421.793V125.25Z" fill="#B7BAC4"/>
<path d="M421.793 128.769H351.676V130.529H421.793V128.769Z" fill="#B7BAC4"/>
<path d="M421.793 132.29H351.676V134.05H421.793V132.29Z" fill="#B7BAC4"/>
<path d="M421.793 136.983H351.676V138.745H421.793V136.983Z" fill="#B7BAC4"/>
<path d="M435.591 155.548H344.326V157.405H435.591V155.548Z" fill="#718299"/>
</svg>
